<mxfile host="app.diagrams.net" agent="Mozilla/5.0 (Windows NT 10.0; Win64; x64) AppleWebKit/537.36 (KHTML, like Gecko) Chrome/128.0.0.0 Safari/537.36" version="24.7.16">
  <diagram name="Page-1" id="ieX4P0T7lf9B-l2iZnik">
    <mxGraphModel dx="2929" dy="1638" grid="1" gridSize="10" guides="1" tooltips="1" connect="1" arrows="1" fold="1" page="1" pageScale="1" pageWidth="850" pageHeight="1100" math="0" shadow="0">
      <root>
        <mxCell id="0" />
        <mxCell id="1" parent="0" />
        <mxCell id="pj4gJBPTk-7VDhpHc7rh-1" value="USER" style="whiteSpace=wrap;html=1;align=center;" parent="1" vertex="1">
          <mxGeometry x="320" y="280" width="165" height="90" as="geometry" />
        </mxCell>
        <mxCell id="pj4gJBPTk-7VDhpHc7rh-2" value="&lt;u&gt;id&lt;/u&gt;" style="ellipse;whiteSpace=wrap;html=1;align=center;" parent="1" vertex="1">
          <mxGeometry x="160" y="385" width="100" height="40" as="geometry" />
        </mxCell>
        <mxCell id="pj4gJBPTk-7VDhpHc7rh-3" value="name" style="ellipse;whiteSpace=wrap;html=1;align=center;" parent="1" vertex="1">
          <mxGeometry x="550" y="185" width="100" height="40" as="geometry" />
        </mxCell>
        <mxCell id="pj4gJBPTk-7VDhpHc7rh-4" value="surname" style="ellipse;whiteSpace=wrap;html=1;align=center;" parent="1" vertex="1">
          <mxGeometry x="550" y="230" width="100" height="40" as="geometry" />
        </mxCell>
        <mxCell id="pj4gJBPTk-7VDhpHc7rh-5" value="bio" style="ellipse;whiteSpace=wrap;html=1;align=center;" parent="1" vertex="1">
          <mxGeometry x="510" y="275" width="100" height="40" as="geometry" />
        </mxCell>
        <mxCell id="pj4gJBPTk-7VDhpHc7rh-6" value="profession" style="ellipse;whiteSpace=wrap;html=1;align=center;" parent="1" vertex="1">
          <mxGeometry x="510" y="340" width="100" height="40" as="geometry" />
        </mxCell>
        <mxCell id="pj4gJBPTk-7VDhpHc7rh-7" value="email" style="ellipse;whiteSpace=wrap;html=1;align=center;" parent="1" vertex="1">
          <mxGeometry x="530" y="390" width="100" height="40" as="geometry" />
        </mxCell>
        <mxCell id="pj4gJBPTk-7VDhpHc7rh-8" value="password" style="ellipse;whiteSpace=wrap;html=1;align=center;" parent="1" vertex="1">
          <mxGeometry x="405" y="400" width="100" height="40" as="geometry" />
        </mxCell>
        <mxCell id="pj4gJBPTk-7VDhpHc7rh-9" value="phone" style="ellipse;whiteSpace=wrap;html=1;align=center;" parent="1" vertex="1">
          <mxGeometry x="395" y="445" width="100" height="40" as="geometry" />
        </mxCell>
        <mxCell id="pj4gJBPTk-7VDhpHc7rh-10" value="city" style="ellipse;whiteSpace=wrap;html=1;align=center;" parent="1" vertex="1">
          <mxGeometry x="188" y="300" width="102" height="45" as="geometry" />
        </mxCell>
        <mxCell id="pj4gJBPTk-7VDhpHc7rh-11" value="country" style="ellipse;whiteSpace=wrap;html=1;align=center;" parent="1" vertex="1">
          <mxGeometry x="280" y="405" width="100" height="40" as="geometry" />
        </mxCell>
        <mxCell id="pj4gJBPTk-7VDhpHc7rh-12" value="CV" style="ellipse;whiteSpace=wrap;html=1;align=center;" parent="1" vertex="1">
          <mxGeometry x="178" y="225" width="100" height="40" as="geometry" />
        </mxCell>
        <mxCell id="pj4gJBPTk-7VDhpHc7rh-13" value="photo" style="ellipse;whiteSpace=wrap;html=1;align=center;" parent="1" vertex="1">
          <mxGeometry x="121" y="265" width="100" height="40" as="geometry" />
        </mxCell>
        <mxCell id="pj4gJBPTk-7VDhpHc7rh-16" value="" style="endArrow=none;html=1;rounded=0;exitX=0.956;exitY=0.26;exitDx=0;exitDy=0;exitPerimeter=0;entryX=0.002;entryY=0.927;entryDx=0;entryDy=0;entryPerimeter=0;" parent="1" source="pj4gJBPTk-7VDhpHc7rh-2" target="pj4gJBPTk-7VDhpHc7rh-1" edge="1">
          <mxGeometry relative="1" as="geometry">
            <mxPoint x="340" y="390" as="sourcePoint" />
            <mxPoint x="320" y="360" as="targetPoint" />
          </mxGeometry>
        </mxCell>
        <mxCell id="pj4gJBPTk-7VDhpHc7rh-17" value="" style="endArrow=none;html=1;rounded=0;exitX=0;exitY=0.5;exitDx=0;exitDy=0;entryX=1;entryY=0;entryDx=0;entryDy=0;" parent="1" source="pj4gJBPTk-7VDhpHc7rh-3" target="pj4gJBPTk-7VDhpHc7rh-1" edge="1">
          <mxGeometry relative="1" as="geometry">
            <mxPoint x="460" y="240" as="sourcePoint" />
            <mxPoint x="463" y="280" as="targetPoint" />
          </mxGeometry>
        </mxCell>
        <mxCell id="pj4gJBPTk-7VDhpHc7rh-18" value="" style="endArrow=none;html=1;rounded=0;exitX=0.04;exitY=0.705;exitDx=0;exitDy=0;entryX=1.006;entryY=0.091;entryDx=0;entryDy=0;entryPerimeter=0;exitPerimeter=0;" parent="1" source="pj4gJBPTk-7VDhpHc7rh-4" target="pj4gJBPTk-7VDhpHc7rh-1" edge="1">
          <mxGeometry relative="1" as="geometry">
            <mxPoint x="500" y="270" as="sourcePoint" />
            <mxPoint x="503" y="310" as="targetPoint" />
          </mxGeometry>
        </mxCell>
        <mxCell id="pj4gJBPTk-7VDhpHc7rh-19" value="" style="endArrow=none;html=1;rounded=0;exitX=0.056;exitY=0.715;exitDx=0;exitDy=0;entryX=0.996;entryY=0.376;entryDx=0;entryDy=0;entryPerimeter=0;exitPerimeter=0;" parent="1" source="pj4gJBPTk-7VDhpHc7rh-5" target="pj4gJBPTk-7VDhpHc7rh-1" edge="1">
          <mxGeometry relative="1" as="geometry">
            <mxPoint x="500" y="310" as="sourcePoint" />
            <mxPoint x="503" y="350" as="targetPoint" />
          </mxGeometry>
        </mxCell>
        <mxCell id="pj4gJBPTk-7VDhpHc7rh-20" value="" style="endArrow=none;html=1;rounded=0;entryX=0.048;entryY=0.305;entryDx=0;entryDy=0;entryPerimeter=0;exitX=0.996;exitY=0.669;exitDx=0;exitDy=0;exitPerimeter=0;" parent="1" source="pj4gJBPTk-7VDhpHc7rh-1" target="pj4gJBPTk-7VDhpHc7rh-6" edge="1">
          <mxGeometry relative="1" as="geometry">
            <mxPoint x="490" y="350" as="sourcePoint" />
            <mxPoint x="503" y="390" as="targetPoint" />
          </mxGeometry>
        </mxCell>
        <mxCell id="pj4gJBPTk-7VDhpHc7rh-21" value="" style="endArrow=none;html=1;rounded=0;exitX=0.948;exitY=1.016;exitDx=0;exitDy=0;entryX=0.272;entryY=0.025;entryDx=0;entryDy=0;entryPerimeter=0;exitPerimeter=0;" parent="1" source="pj4gJBPTk-7VDhpHc7rh-1" target="pj4gJBPTk-7VDhpHc7rh-7" edge="1">
          <mxGeometry relative="1" as="geometry">
            <mxPoint x="500" y="390" as="sourcePoint" />
            <mxPoint x="503" y="430" as="targetPoint" />
          </mxGeometry>
        </mxCell>
        <mxCell id="pj4gJBPTk-7VDhpHc7rh-22" value="" style="endArrow=none;html=1;rounded=0;exitX=0.657;exitY=0.989;exitDx=0;exitDy=0;entryX=0.256;entryY=0.095;entryDx=0;entryDy=0;entryPerimeter=0;exitPerimeter=0;" parent="1" source="pj4gJBPTk-7VDhpHc7rh-1" target="pj4gJBPTk-7VDhpHc7rh-8" edge="1">
          <mxGeometry relative="1" as="geometry">
            <mxPoint x="430" y="380" as="sourcePoint" />
            <mxPoint x="433" y="420" as="targetPoint" />
          </mxGeometry>
        </mxCell>
        <mxCell id="pj4gJBPTk-7VDhpHc7rh-23" value="" style="endArrow=none;html=1;rounded=0;exitX=0.381;exitY=0.998;exitDx=0;exitDy=0;entryX=0;entryY=0;entryDx=0;entryDy=0;exitPerimeter=0;" parent="1" source="pj4gJBPTk-7VDhpHc7rh-1" target="pj4gJBPTk-7VDhpHc7rh-9" edge="1">
          <mxGeometry relative="1" as="geometry">
            <mxPoint x="360" y="380" as="sourcePoint" />
            <mxPoint x="363" y="420" as="targetPoint" />
          </mxGeometry>
        </mxCell>
        <mxCell id="pj4gJBPTk-7VDhpHc7rh-24" value="" style="endArrow=none;html=1;rounded=0;exitX=0.25;exitY=1;exitDx=0;exitDy=0;entryX=0.732;entryY=0.16;entryDx=0;entryDy=0;entryPerimeter=0;" parent="1" source="pj4gJBPTk-7VDhpHc7rh-1" target="pj4gJBPTk-7VDhpHc7rh-11" edge="1">
          <mxGeometry relative="1" as="geometry">
            <mxPoint x="300" y="360" as="sourcePoint" />
            <mxPoint x="303" y="400" as="targetPoint" />
          </mxGeometry>
        </mxCell>
        <mxCell id="pj4gJBPTk-7VDhpHc7rh-25" value="" style="endArrow=none;html=1;rounded=0;exitX=1;exitY=0.5;exitDx=0;exitDy=0;entryX=-0.002;entryY=0.58;entryDx=0;entryDy=0;entryPerimeter=0;" parent="1" source="pj4gJBPTk-7VDhpHc7rh-10" target="pj4gJBPTk-7VDhpHc7rh-1" edge="1">
          <mxGeometry relative="1" as="geometry">
            <mxPoint x="300" y="300" as="sourcePoint" />
            <mxPoint x="303" y="340" as="targetPoint" />
          </mxGeometry>
        </mxCell>
        <mxCell id="pj4gJBPTk-7VDhpHc7rh-26" value="" style="endArrow=none;html=1;rounded=0;exitX=0.776;exitY=0.885;exitDx=0;exitDy=0;entryX=0;entryY=0;entryDx=0;entryDy=0;exitPerimeter=0;" parent="1" source="pj4gJBPTk-7VDhpHc7rh-12" target="pj4gJBPTk-7VDhpHc7rh-1" edge="1">
          <mxGeometry relative="1" as="geometry">
            <mxPoint x="330" y="250" as="sourcePoint" />
            <mxPoint x="333" y="290" as="targetPoint" />
          </mxGeometry>
        </mxCell>
        <mxCell id="pj4gJBPTk-7VDhpHc7rh-27" value="" style="endArrow=none;html=1;rounded=0;exitX=1;exitY=0.5;exitDx=0;exitDy=0;entryX=0.007;entryY=0.349;entryDx=0;entryDy=0;entryPerimeter=0;" parent="1" source="pj4gJBPTk-7VDhpHc7rh-13" target="pj4gJBPTk-7VDhpHc7rh-1" edge="1">
          <mxGeometry relative="1" as="geometry">
            <mxPoint x="310" y="260" as="sourcePoint" />
            <mxPoint x="313" y="300" as="targetPoint" />
          </mxGeometry>
        </mxCell>
        <mxCell id="pj4gJBPTk-7VDhpHc7rh-31" value="not_topic_pref" style="ellipse;whiteSpace=wrap;html=1;align=center;" parent="1" vertex="1">
          <mxGeometry x="205" y="180" width="100" height="40" as="geometry" />
        </mxCell>
        <mxCell id="pj4gJBPTk-7VDhpHc7rh-32" value="not_target_pref" style="ellipse;whiteSpace=wrap;html=1;align=center;" parent="1" vertex="1">
          <mxGeometry x="287.5" y="135" width="100" height="40" as="geometry" />
        </mxCell>
        <mxCell id="pj4gJBPTk-7VDhpHc7rh-36" value="" style="endArrow=none;html=1;rounded=0;exitX=0.124;exitY=-0.024;exitDx=0;exitDy=0;entryX=1;entryY=1;entryDx=0;entryDy=0;exitPerimeter=0;" parent="1" source="pj4gJBPTk-7VDhpHc7rh-1" target="pj4gJBPTk-7VDhpHc7rh-31" edge="1">
          <mxGeometry relative="1" as="geometry">
            <mxPoint x="500" y="-300" as="sourcePoint" />
            <mxPoint x="503" y="-260" as="targetPoint" />
          </mxGeometry>
        </mxCell>
        <mxCell id="pj4gJBPTk-7VDhpHc7rh-45" value="POINTS" style="whiteSpace=wrap;html=1;align=center;" parent="1" vertex="1">
          <mxGeometry x="335" y="-350" width="100" height="40" as="geometry" />
        </mxCell>
        <mxCell id="pj4gJBPTk-7VDhpHc7rh-46" value="&lt;u&gt;id&lt;/u&gt;" style="ellipse;whiteSpace=wrap;html=1;align=center;" parent="1" vertex="1">
          <mxGeometry x="305" y="-410" width="100" height="40" as="geometry" />
        </mxCell>
        <mxCell id="pj4gJBPTk-7VDhpHc7rh-48" value="points for ?" style="ellipse;whiteSpace=wrap;html=1;align=center;" parent="1" vertex="1">
          <mxGeometry x="465" y="-360" width="100" height="40" as="geometry" />
        </mxCell>
        <mxCell id="pj4gJBPTk-7VDhpHc7rh-49" value="" style="endArrow=none;html=1;rounded=0;exitX=0.628;exitY=0.965;exitDx=0;exitDy=0;entryX=0.34;entryY=0.035;entryDx=0;entryDy=0;exitPerimeter=0;entryPerimeter=0;" parent="1" source="pj4gJBPTk-7VDhpHc7rh-46" target="pj4gJBPTk-7VDhpHc7rh-45" edge="1">
          <mxGeometry relative="1" as="geometry">
            <mxPoint x="200" y="-570" as="sourcePoint" />
            <mxPoint x="191" y="-540" as="targetPoint" />
          </mxGeometry>
        </mxCell>
        <mxCell id="pj4gJBPTk-7VDhpHc7rh-51" value="" style="endArrow=none;html=1;rounded=0;exitX=0;exitY=0.5;exitDx=0;exitDy=0;entryX=1;entryY=0.5;entryDx=0;entryDy=0;" parent="1" source="pj4gJBPTk-7VDhpHc7rh-48" target="pj4gJBPTk-7VDhpHc7rh-45" edge="1">
          <mxGeometry relative="1" as="geometry">
            <mxPoint x="290" y="-510" as="sourcePoint" />
            <mxPoint x="281" y="-480" as="targetPoint" />
          </mxGeometry>
        </mxCell>
        <mxCell id="pj4gJBPTk-7VDhpHc7rh-52" value="has" style="shape=rhombus;perimeter=rhombusPerimeter;whiteSpace=wrap;html=1;align=center;" parent="1" vertex="1">
          <mxGeometry x="375" y="-205" width="90" height="40" as="geometry" />
        </mxCell>
        <mxCell id="pj4gJBPTk-7VDhpHc7rh-53" value="" style="endArrow=none;html=1;rounded=0;exitX=0.5;exitY=1;exitDx=0;exitDy=0;entryX=0.373;entryY=0.115;entryDx=0;entryDy=0;entryPerimeter=0;" parent="1" source="pj4gJBPTk-7VDhpHc7rh-45" target="pj4gJBPTk-7VDhpHc7rh-52" edge="1">
          <mxGeometry relative="1" as="geometry">
            <mxPoint x="220" y="-490" as="sourcePoint" />
            <mxPoint x="211" y="-460" as="targetPoint" />
          </mxGeometry>
        </mxCell>
        <mxCell id="pj4gJBPTk-7VDhpHc7rh-54" value="" style="endArrow=none;html=1;rounded=0;exitX=0.668;exitY=0.975;exitDx=0;exitDy=0;entryX=0.578;entryY=0.095;entryDx=0;entryDy=0;exitPerimeter=0;entryPerimeter=0;" parent="1" source="pj4gJBPTk-7VDhpHc7rh-45" target="pj4gJBPTk-7VDhpHc7rh-52" edge="1">
          <mxGeometry relative="1" as="geometry">
            <mxPoint x="240" y="-500" as="sourcePoint" />
            <mxPoint x="231" y="-470" as="targetPoint" />
          </mxGeometry>
        </mxCell>
        <mxCell id="pj4gJBPTk-7VDhpHc7rh-55" value="" style="endArrow=none;html=1;rounded=0;exitX=0.649;exitY=0.895;exitDx=0;exitDy=0;entryX=0.5;entryY=0;entryDx=0;entryDy=0;exitPerimeter=0;" parent="1" source="pj4gJBPTk-7VDhpHc7rh-52" target="pj4gJBPTk-7VDhpHc7rh-1" edge="1">
          <mxGeometry relative="1" as="geometry">
            <mxPoint x="260" y="-370" as="sourcePoint" />
            <mxPoint x="332.4074999999998" y="-319.81999999999994" as="targetPoint" />
          </mxGeometry>
        </mxCell>
        <mxCell id="pj4gJBPTk-7VDhpHc7rh-56" value="1" style="text;strokeColor=none;fillColor=none;spacingLeft=4;spacingRight=4;overflow=hidden;rotatable=0;points=[[0,0.5],[1,0.5]];portConstraint=eastwest;fontSize=12;whiteSpace=wrap;html=1;" parent="1" vertex="1">
          <mxGeometry x="435" y="-230" width="40" height="30" as="geometry" />
        </mxCell>
        <mxCell id="pj4gJBPTk-7VDhpHc7rh-57" value="1" style="text;strokeColor=none;fillColor=none;spacingLeft=4;spacingRight=4;overflow=hidden;rotatable=0;points=[[0,0.5],[1,0.5]];portConstraint=eastwest;fontSize=12;whiteSpace=wrap;html=1;" parent="1" vertex="1">
          <mxGeometry x="435" y="-175" width="40" height="30" as="geometry" />
        </mxCell>
        <mxCell id="pj4gJBPTk-7VDhpHc7rh-58" value="BADGES" style="whiteSpace=wrap;html=1;align=center;" parent="1" vertex="1">
          <mxGeometry x="150" y="-320" width="100" height="40" as="geometry" />
        </mxCell>
        <mxCell id="pj4gJBPTk-7VDhpHc7rh-59" value="&lt;u&gt;id&lt;/u&gt;" style="ellipse;whiteSpace=wrap;html=1;align=center;" parent="1" vertex="1">
          <mxGeometry x="78" y="-380" width="100" height="40" as="geometry" />
        </mxCell>
        <mxCell id="pj4gJBPTk-7VDhpHc7rh-61" value="badges for ?" style="ellipse;whiteSpace=wrap;html=1;align=center;" parent="1" vertex="1">
          <mxGeometry x="120" y="-250" width="100" height="40" as="geometry" />
        </mxCell>
        <mxCell id="pj4gJBPTk-7VDhpHc7rh-62" value="has" style="shape=rhombus;perimeter=rhombusPerimeter;whiteSpace=wrap;html=1;align=center;" parent="1" vertex="1">
          <mxGeometry x="263" y="-185" width="90" height="40" as="geometry" />
        </mxCell>
        <mxCell id="pj4gJBPTk-7VDhpHc7rh-63" value="1" style="text;strokeColor=none;fillColor=none;spacingLeft=4;spacingRight=4;overflow=hidden;rotatable=0;points=[[0,0.5],[1,0.5]];portConstraint=eastwest;fontSize=12;whiteSpace=wrap;html=1;" parent="1" vertex="1">
          <mxGeometry x="310" y="-205" width="40" height="30" as="geometry" />
        </mxCell>
        <mxCell id="pj4gJBPTk-7VDhpHc7rh-64" value="1" style="text;strokeColor=none;fillColor=none;spacingLeft=4;spacingRight=4;overflow=hidden;rotatable=0;points=[[0,0.5],[1,0.5]];portConstraint=eastwest;fontSize=12;whiteSpace=wrap;html=1;" parent="1" vertex="1">
          <mxGeometry x="335" y="-150" width="40" height="30" as="geometry" />
        </mxCell>
        <mxCell id="pj4gJBPTk-7VDhpHc7rh-65" value="" style="endArrow=none;html=1;rounded=0;exitX=0.916;exitY=0.995;exitDx=0;exitDy=0;entryX=0.342;entryY=0.055;entryDx=0;entryDy=0;entryPerimeter=0;exitPerimeter=0;" parent="1" source="pj4gJBPTk-7VDhpHc7rh-58" target="pj4gJBPTk-7VDhpHc7rh-62" edge="1">
          <mxGeometry relative="1" as="geometry">
            <mxPoint x="90" y="-350" as="sourcePoint" />
            <mxPoint x="104" y="-285" as="targetPoint" />
          </mxGeometry>
        </mxCell>
        <mxCell id="pj4gJBPTk-7VDhpHc7rh-66" value="" style="endArrow=none;html=1;rounded=0;exitX=0.86;exitY=1.055;exitDx=0;exitDy=0;entryX=0;entryY=0;entryDx=0;entryDy=0;exitPerimeter=0;" parent="1" source="pj4gJBPTk-7VDhpHc7rh-58" target="pj4gJBPTk-7VDhpHc7rh-62" edge="1">
          <mxGeometry relative="1" as="geometry">
            <mxPoint x="120" y="-340" as="sourcePoint" />
            <mxPoint x="134" y="-275" as="targetPoint" />
          </mxGeometry>
        </mxCell>
        <mxCell id="pj4gJBPTk-7VDhpHc7rh-67" value="" style="endArrow=none;html=1;rounded=0;exitX=1;exitY=0.5;exitDx=0;exitDy=0;entryX=0.5;entryY=0;entryDx=0;entryDy=0;" parent="1" source="pj4gJBPTk-7VDhpHc7rh-62" target="pj4gJBPTk-7VDhpHc7rh-1" edge="1">
          <mxGeometry relative="1" as="geometry">
            <mxPoint x="260" y="-310" as="sourcePoint" />
            <mxPoint x="316.8299999999999" y="-282.20000000000005" as="targetPoint" />
          </mxGeometry>
        </mxCell>
        <mxCell id="pj4gJBPTk-7VDhpHc7rh-69" value="" style="endArrow=none;html=1;rounded=0;exitX=0.78;exitY=0.92;exitDx=0;exitDy=0;entryX=0.172;entryY=0.015;entryDx=0;entryDy=0;entryPerimeter=0;exitPerimeter=0;" parent="1" source="pj4gJBPTk-7VDhpHc7rh-59" target="pj4gJBPTk-7VDhpHc7rh-58" edge="1">
          <mxGeometry relative="1" as="geometry">
            <mxPoint x="20" y="-430" as="sourcePoint" />
            <mxPoint x="34" y="-365" as="targetPoint" />
          </mxGeometry>
        </mxCell>
        <mxCell id="pj4gJBPTk-7VDhpHc7rh-71" value="" style="endArrow=none;html=1;rounded=0;exitX=0.25;exitY=1;exitDx=0;exitDy=0;entryX=0.5;entryY=0;entryDx=0;entryDy=0;" parent="1" source="pj4gJBPTk-7VDhpHc7rh-58" target="pj4gJBPTk-7VDhpHc7rh-61" edge="1">
          <mxGeometry relative="1" as="geometry">
            <mxPoint x="40" y="-360" as="sourcePoint" />
            <mxPoint x="54" y="-295" as="targetPoint" />
          </mxGeometry>
        </mxCell>
        <mxCell id="pj4gJBPTk-7VDhpHc7rh-92" value="content" style="ellipse;whiteSpace=wrap;html=1;align=center;" parent="1" vertex="1">
          <mxGeometry x="465" y="-80" width="100" height="40" as="geometry" />
        </mxCell>
        <mxCell id="pj4gJBPTk-7VDhpHc7rh-96" value="" style="endArrow=none;html=1;rounded=0;exitX=0.449;exitY=0.07;exitDx=0;exitDy=0;entryX=0.5;entryY=1;entryDx=0;entryDy=0;exitPerimeter=0;" parent="1" source="pj4gJBPTk-7VDhpHc7rh-97" target="pj4gJBPTk-7VDhpHc7rh-92" edge="1">
          <mxGeometry relative="1" as="geometry">
            <mxPoint x="719.1500000000001" y="-24.579999999999927" as="sourcePoint" />
            <mxPoint x="766" y="5" as="targetPoint" />
          </mxGeometry>
        </mxCell>
        <mxCell id="pj4gJBPTk-7VDhpHc7rh-97" value="RECOMENDATIONS" style="rhombus;whiteSpace=wrap;html=1;" parent="1" vertex="1">
          <mxGeometry x="450" y="-25" width="140" height="72.5" as="geometry" />
        </mxCell>
        <mxCell id="pj4gJBPTk-7VDhpHc7rh-99" value="" style="endArrow=none;html=1;rounded=0;exitX=0.667;exitY=0;exitDx=0;exitDy=0;entryX=0.5;entryY=1;entryDx=0;entryDy=0;exitPerimeter=0;" parent="1" source="pj4gJBPTk-7VDhpHc7rh-1" target="pj4gJBPTk-7VDhpHc7rh-97" edge="1">
          <mxGeometry relative="1" as="geometry">
            <mxPoint x="474.4475000000002" y="-230.99" as="sourcePoint" />
            <mxPoint x="479" y="11" as="targetPoint" />
          </mxGeometry>
        </mxCell>
        <mxCell id="pj4gJBPTk-7VDhpHc7rh-100" value="" style="endArrow=none;html=1;rounded=0;exitX=0.587;exitY=-0.016;exitDx=0;exitDy=0;entryX=0;entryY=0.5;entryDx=0;entryDy=0;exitPerimeter=0;" parent="1" source="pj4gJBPTk-7VDhpHc7rh-1" target="pj4gJBPTk-7VDhpHc7rh-97" edge="1">
          <mxGeometry relative="1" as="geometry">
            <mxPoint x="436.7600000000002" y="-230.99" as="sourcePoint" />
            <mxPoint x="459" y="1" as="targetPoint" />
          </mxGeometry>
        </mxCell>
        <mxCell id="pj4gJBPTk-7VDhpHc7rh-101" value="M" style="text;strokeColor=none;fillColor=none;spacingLeft=4;spacingRight=4;overflow=hidden;rotatable=0;points=[[0,0.5],[1,0.5]];portConstraint=eastwest;fontSize=12;whiteSpace=wrap;html=1;" parent="1" vertex="1">
          <mxGeometry x="450" y="20" width="40" height="30" as="geometry" />
        </mxCell>
        <mxCell id="pj4gJBPTk-7VDhpHc7rh-102" value="N" style="text;strokeColor=none;fillColor=none;spacingLeft=4;spacingRight=4;overflow=hidden;rotatable=0;points=[[0,0.5],[1,0.5]];portConstraint=eastwest;fontSize=12;whiteSpace=wrap;html=1;" parent="1" vertex="1">
          <mxGeometry x="495" y="43.75" width="40" height="30" as="geometry" />
        </mxCell>
        <mxCell id="pj4gJBPTk-7VDhpHc7rh-103" value="BLOG" style="whiteSpace=wrap;html=1;align=center;" parent="1" vertex="1">
          <mxGeometry x="-560" y="345" width="165" height="90" as="geometry" />
        </mxCell>
        <mxCell id="pj4gJBPTk-7VDhpHc7rh-104" value="&lt;u&gt;id&lt;/u&gt;" style="ellipse;whiteSpace=wrap;html=1;align=center;" parent="1" vertex="1">
          <mxGeometry x="-690" y="295" width="100" height="40" as="geometry" />
        </mxCell>
        <mxCell id="pj4gJBPTk-7VDhpHc7rh-105" value="img" style="ellipse;whiteSpace=wrap;html=1;align=center;" parent="1" vertex="1">
          <mxGeometry x="-470" y="265" width="100" height="40" as="geometry" />
        </mxCell>
        <mxCell id="pj4gJBPTk-7VDhpHc7rh-106" value="title" style="ellipse;whiteSpace=wrap;html=1;align=center;" parent="1" vertex="1">
          <mxGeometry x="-580" y="265" width="100" height="40" as="geometry" />
        </mxCell>
        <mxCell id="pj4gJBPTk-7VDhpHc7rh-111" value="" style="endArrow=none;html=1;rounded=0;exitX=0.5;exitY=1;exitDx=0;exitDy=0;entryX=0;entryY=0.25;entryDx=0;entryDy=0;" parent="1" source="pj4gJBPTk-7VDhpHc7rh-104" target="pj4gJBPTk-7VDhpHc7rh-103" edge="1">
          <mxGeometry relative="1" as="geometry">
            <mxPoint x="-460" y="320" as="sourcePoint" />
            <mxPoint x="-484" y="356" as="targetPoint" />
          </mxGeometry>
        </mxCell>
        <mxCell id="pj4gJBPTk-7VDhpHc7rh-112" value="" style="endArrow=none;html=1;rounded=0;exitX=0.424;exitY=1.06;exitDx=0;exitDy=0;entryX=0.75;entryY=0;entryDx=0;entryDy=0;exitPerimeter=0;" parent="1" source="pj4gJBPTk-7VDhpHc7rh-105" target="pj4gJBPTk-7VDhpHc7rh-103" edge="1">
          <mxGeometry relative="1" as="geometry">
            <mxPoint x="-450" y="310" as="sourcePoint" />
            <mxPoint x="-474" y="346" as="targetPoint" />
          </mxGeometry>
        </mxCell>
        <mxCell id="pj4gJBPTk-7VDhpHc7rh-113" value="" style="endArrow=none;html=1;rounded=0;exitX=0.5;exitY=1;exitDx=0;exitDy=0;entryX=0.405;entryY=0.009;entryDx=0;entryDy=0;entryPerimeter=0;" parent="1" source="pj4gJBPTk-7VDhpHc7rh-106" target="pj4gJBPTk-7VDhpHc7rh-103" edge="1">
          <mxGeometry relative="1" as="geometry">
            <mxPoint x="-360" y="350" as="sourcePoint" />
            <mxPoint x="-384" y="386" as="targetPoint" />
          </mxGeometry>
        </mxCell>
        <mxCell id="pj4gJBPTk-7VDhpHc7rh-116" value="created" style="shape=rhombus;perimeter=rhombusPerimeter;whiteSpace=wrap;html=1;align=center;" parent="1" vertex="1">
          <mxGeometry x="-110" y="300" width="90" height="40" as="geometry" />
        </mxCell>
        <mxCell id="pj4gJBPTk-7VDhpHc7rh-117" value="" style="endArrow=none;html=1;rounded=0;exitX=0.147;exitY=0.365;exitDx=0;exitDy=0;entryX=1.008;entryY=0.124;entryDx=0;entryDy=0;exitPerimeter=0;entryPerimeter=0;" parent="1" source="pj4gJBPTk-7VDhpHc7rh-116" target="pj4gJBPTk-7VDhpHc7rh-103" edge="1">
          <mxGeometry relative="1" as="geometry">
            <mxPoint x="-180" y="330" as="sourcePoint" />
            <mxPoint x="-204" y="366" as="targetPoint" />
          </mxGeometry>
        </mxCell>
        <mxCell id="pj4gJBPTk-7VDhpHc7rh-118" value="" style="endArrow=none;html=1;rounded=0;exitX=0;exitY=0.5;exitDx=0;exitDy=0;entryX=1;entryY=0.25;entryDx=0;entryDy=0;" parent="1" source="pj4gJBPTk-7VDhpHc7rh-116" target="pj4gJBPTk-7VDhpHc7rh-103" edge="1">
          <mxGeometry relative="1" as="geometry">
            <mxPoint x="-180" y="340" as="sourcePoint" />
            <mxPoint x="-204" y="376" as="targetPoint" />
          </mxGeometry>
        </mxCell>
        <mxCell id="pj4gJBPTk-7VDhpHc7rh-119" value="" style="endArrow=none;html=1;rounded=0;exitX=0.005;exitY=0.847;exitDx=0;exitDy=0;entryX=1;entryY=0.5;entryDx=0;entryDy=0;exitPerimeter=0;" parent="1" source="pj4gJBPTk-7VDhpHc7rh-1" target="pj4gJBPTk-7VDhpHc7rh-116" edge="1">
          <mxGeometry relative="1" as="geometry">
            <mxPoint x="90" y="270" as="sourcePoint" />
            <mxPoint x="66" y="306" as="targetPoint" />
          </mxGeometry>
        </mxCell>
        <mxCell id="pj4gJBPTk-7VDhpHc7rh-120" value="1" style="text;strokeColor=none;fillColor=none;spacingLeft=4;spacingRight=4;overflow=hidden;rotatable=0;points=[[0,0.5],[1,0.5]];portConstraint=eastwest;fontSize=12;whiteSpace=wrap;html=1;" parent="1" vertex="1">
          <mxGeometry x="-30" y="290" width="40" height="30" as="geometry" />
        </mxCell>
        <mxCell id="pj4gJBPTk-7VDhpHc7rh-122" value="M" style="text;strokeColor=none;fillColor=none;spacingLeft=4;spacingRight=4;overflow=hidden;rotatable=0;points=[[0,0.5],[1,0.5]];portConstraint=eastwest;fontSize=12;whiteSpace=wrap;html=1;" parent="1" vertex="1">
          <mxGeometry x="-130" y="290" width="40" height="30" as="geometry" />
        </mxCell>
        <mxCell id="pj4gJBPTk-7VDhpHc7rh-129" value="liked" style="shape=rhombus;perimeter=rhombusPerimeter;whiteSpace=wrap;html=1;align=center;" parent="1" vertex="1">
          <mxGeometry x="-103" y="390" width="90" height="40" as="geometry" />
        </mxCell>
        <mxCell id="pj4gJBPTk-7VDhpHc7rh-130" value="N" style="text;strokeColor=none;fillColor=none;spacingLeft=4;spacingRight=4;overflow=hidden;rotatable=0;points=[[0,0.5],[1,0.5]];portConstraint=eastwest;fontSize=12;whiteSpace=wrap;html=1;" parent="1" vertex="1">
          <mxGeometry x="-19" y="385" width="40" height="30" as="geometry" />
        </mxCell>
        <mxCell id="pj4gJBPTk-7VDhpHc7rh-131" value="M" style="text;strokeColor=none;fillColor=none;spacingLeft=4;spacingRight=4;overflow=hidden;rotatable=0;points=[[0,0.5],[1,0.5]];portConstraint=eastwest;fontSize=12;whiteSpace=wrap;html=1;" parent="1" vertex="1">
          <mxGeometry x="-118" y="380" width="40" height="30" as="geometry" />
        </mxCell>
        <mxCell id="pj4gJBPTk-7VDhpHc7rh-132" value="" style="endArrow=none;html=1;rounded=0;exitX=0.012;exitY=0.909;exitDx=0;exitDy=0;entryX=1;entryY=0.5;entryDx=0;entryDy=0;exitPerimeter=0;" parent="1" source="pj4gJBPTk-7VDhpHc7rh-1" target="pj4gJBPTk-7VDhpHc7rh-129" edge="1">
          <mxGeometry relative="1" as="geometry">
            <mxPoint x="70" y="420" as="sourcePoint" />
            <mxPoint x="-271" y="384" as="targetPoint" />
          </mxGeometry>
        </mxCell>
        <mxCell id="pj4gJBPTk-7VDhpHc7rh-133" value="" style="endArrow=none;html=1;rounded=0;exitX=0;exitY=0.5;exitDx=0;exitDy=0;entryX=1;entryY=1;entryDx=0;entryDy=0;" parent="1" source="pj4gJBPTk-7VDhpHc7rh-129" target="pj4gJBPTk-7VDhpHc7rh-103" edge="1">
          <mxGeometry relative="1" as="geometry">
            <mxPoint x="-240" y="440" as="sourcePoint" />
            <mxPoint x="-581" y="404" as="targetPoint" />
          </mxGeometry>
        </mxCell>
        <mxCell id="pj4gJBPTk-7VDhpHc7rh-140" value="favourited" style="shape=rhombus;perimeter=rhombusPerimeter;whiteSpace=wrap;html=1;align=center;" parent="1" vertex="1">
          <mxGeometry x="-121" y="170" width="90" height="40" as="geometry" />
        </mxCell>
        <mxCell id="pj4gJBPTk-7VDhpHc7rh-141" value="N" style="text;strokeColor=none;fillColor=none;spacingLeft=4;spacingRight=4;overflow=hidden;rotatable=0;points=[[0,0.5],[1,0.5]];portConstraint=eastwest;fontSize=12;whiteSpace=wrap;html=1;" parent="1" vertex="1">
          <mxGeometry x="-40" y="190" width="40" height="30" as="geometry" />
        </mxCell>
        <mxCell id="pj4gJBPTk-7VDhpHc7rh-142" value="M" style="text;strokeColor=none;fillColor=none;spacingLeft=4;spacingRight=4;overflow=hidden;rotatable=0;points=[[0,0.5],[1,0.5]];portConstraint=eastwest;fontSize=12;whiteSpace=wrap;html=1;" parent="1" vertex="1">
          <mxGeometry x="-122" y="200" width="40" height="30" as="geometry" />
        </mxCell>
        <mxCell id="pj4gJBPTk-7VDhpHc7rh-145" value="" style="endArrow=none;html=1;rounded=0;exitX=0;exitY=0.25;exitDx=0;exitDy=0;entryX=1;entryY=0.5;entryDx=0;entryDy=0;" parent="1" source="pj4gJBPTk-7VDhpHc7rh-1" target="pj4gJBPTk-7VDhpHc7rh-140" edge="1">
          <mxGeometry relative="1" as="geometry">
            <mxPoint x="30" y="200" as="sourcePoint" />
            <mxPoint x="-311" y="164" as="targetPoint" />
          </mxGeometry>
        </mxCell>
        <mxCell id="pj4gJBPTk-7VDhpHc7rh-146" value="" style="endArrow=none;html=1;rounded=0;exitX=0.144;exitY=0.655;exitDx=0;exitDy=0;entryX=1;entryY=0;entryDx=0;entryDy=0;exitPerimeter=0;" parent="1" source="pj4gJBPTk-7VDhpHc7rh-140" target="pj4gJBPTk-7VDhpHc7rh-103" edge="1">
          <mxGeometry relative="1" as="geometry">
            <mxPoint x="-210" y="220" as="sourcePoint" />
            <mxPoint x="-551" y="184" as="targetPoint" />
          </mxGeometry>
        </mxCell>
        <mxCell id="pj4gJBPTk-7VDhpHc7rh-151" value="commented" style="shape=rhombus;perimeter=rhombusPerimeter;whiteSpace=wrap;html=1;align=center;" parent="1" vertex="1">
          <mxGeometry x="-55" y="550" width="95" height="40" as="geometry" />
        </mxCell>
        <mxCell id="pj4gJBPTk-7VDhpHc7rh-152" value="N" style="text;strokeColor=none;fillColor=none;spacingLeft=4;spacingRight=4;overflow=hidden;rotatable=0;points=[[0,0.5],[1,0.5]];portConstraint=eastwest;fontSize=12;whiteSpace=wrap;html=1;" parent="1" vertex="1">
          <mxGeometry x="29" y="540" width="40" height="30" as="geometry" />
        </mxCell>
        <mxCell id="pj4gJBPTk-7VDhpHc7rh-153" value="M" style="text;strokeColor=none;fillColor=none;spacingLeft=4;spacingRight=4;overflow=hidden;rotatable=0;points=[[0,0.5],[1,0.5]];portConstraint=eastwest;fontSize=12;whiteSpace=wrap;html=1;" parent="1" vertex="1">
          <mxGeometry x="-62" y="540" width="40" height="30" as="geometry" />
        </mxCell>
        <mxCell id="pj4gJBPTk-7VDhpHc7rh-156" value="" style="endArrow=none;html=1;rounded=0;exitX=1;exitY=1;exitDx=0;exitDy=0;entryX=0;entryY=0.5;entryDx=0;entryDy=0;" parent="1" source="pj4gJBPTk-7VDhpHc7rh-103" target="pj4gJBPTk-7VDhpHc7rh-151" edge="1">
          <mxGeometry relative="1" as="geometry">
            <mxPoint x="-270" y="510" as="sourcePoint" />
            <mxPoint x="-550" y="545" as="targetPoint" />
          </mxGeometry>
        </mxCell>
        <mxCell id="pj4gJBPTk-7VDhpHc7rh-157" value="" style="endArrow=none;html=1;rounded=0;exitX=0;exitY=1;exitDx=0;exitDy=0;entryX=1;entryY=0.5;entryDx=0;entryDy=0;" parent="1" source="pj4gJBPTk-7VDhpHc7rh-1" target="pj4gJBPTk-7VDhpHc7rh-151" edge="1">
          <mxGeometry relative="1" as="geometry">
            <mxPoint x="140" y="490" as="sourcePoint" />
            <mxPoint x="130" y="600" as="targetPoint" />
          </mxGeometry>
        </mxCell>
        <mxCell id="pj4gJBPTk-7VDhpHc7rh-158" value="content" style="ellipse;whiteSpace=wrap;html=1;align=center;" parent="1" vertex="1">
          <mxGeometry x="21" y="600" width="100" height="40" as="geometry" />
        </mxCell>
        <mxCell id="pj4gJBPTk-7VDhpHc7rh-160" value="" style="endArrow=none;html=1;rounded=0;exitX=0.672;exitY=0.835;exitDx=0;exitDy=0;entryX=0;entryY=0.5;entryDx=0;entryDy=0;exitPerimeter=0;" parent="1" source="pj4gJBPTk-7VDhpHc7rh-151" target="pj4gJBPTk-7VDhpHc7rh-158" edge="1">
          <mxGeometry relative="1" as="geometry">
            <mxPoint x="70" y="610" as="sourcePoint" />
            <mxPoint x="112" y="646" as="targetPoint" />
          </mxGeometry>
        </mxCell>
        <mxCell id="pj4gJBPTk-7VDhpHc7rh-166" value="liked" style="shape=rhombus;perimeter=rhombusPerimeter;whiteSpace=wrap;html=1;align=center;" parent="1" vertex="1">
          <mxGeometry x="345" y="560" width="90" height="40" as="geometry" />
        </mxCell>
        <mxCell id="pj4gJBPTk-7VDhpHc7rh-167" value="N" style="text;strokeColor=none;fillColor=none;spacingLeft=4;spacingRight=4;overflow=hidden;rotatable=0;points=[[0,0.5],[1,0.5]];portConstraint=eastwest;fontSize=12;whiteSpace=wrap;html=1;" parent="1" vertex="1">
          <mxGeometry x="369" y="525" width="40" height="30" as="geometry" />
        </mxCell>
        <mxCell id="pj4gJBPTk-7VDhpHc7rh-168" value="M" style="text;strokeColor=none;fillColor=none;spacingLeft=4;spacingRight=4;overflow=hidden;rotatable=0;points=[[0,0.5],[1,0.5]];portConstraint=eastwest;fontSize=12;whiteSpace=wrap;html=1;" parent="1" vertex="1">
          <mxGeometry x="317.5" y="555" width="40" height="30" as="geometry" />
        </mxCell>
        <mxCell id="pj4gJBPTk-7VDhpHc7rh-172" value="" style="endArrow=none;html=1;rounded=0;entryX=0.5;entryY=0;entryDx=0;entryDy=0;" parent="1" target="pj4gJBPTk-7VDhpHc7rh-166" edge="1">
          <mxGeometry relative="1" as="geometry">
            <mxPoint x="380" y="370" as="sourcePoint" />
            <mxPoint x="362" y="496" as="targetPoint" />
          </mxGeometry>
        </mxCell>
        <mxCell id="pj4gJBPTk-7VDhpHc7rh-173" value="" style="endArrow=none;html=1;rounded=0;exitX=1;exitY=0.5;exitDx=0;exitDy=0;entryX=0;entryY=0.5;entryDx=0;entryDy=0;" parent="1" source="pj4gJBPTk-7VDhpHc7rh-151" target="pj4gJBPTk-7VDhpHc7rh-166" edge="1">
          <mxGeometry relative="1" as="geometry">
            <mxPoint x="190" y="550" as="sourcePoint" />
            <mxPoint x="202" y="576" as="targetPoint" />
          </mxGeometry>
        </mxCell>
        <mxCell id="pj4gJBPTk-7VDhpHc7rh-174" value="replay" style="shape=rhombus;perimeter=rhombusPerimeter;whiteSpace=wrap;html=1;align=center;" parent="1" vertex="1">
          <mxGeometry x="-157" y="650" width="95" height="40" as="geometry" />
        </mxCell>
        <mxCell id="pj4gJBPTk-7VDhpHc7rh-185" value="" style="endArrow=none;html=1;rounded=0;exitX=0;exitY=1;exitDx=0;exitDy=0;entryX=0.585;entryY=0.055;entryDx=0;entryDy=0;entryPerimeter=0;" parent="1" source="pj4gJBPTk-7VDhpHc7rh-151" target="pj4gJBPTk-7VDhpHc7rh-174" edge="1">
          <mxGeometry relative="1" as="geometry">
            <mxPoint x="-90" y="660" as="sourcePoint" />
            <mxPoint x="-51" y="696" as="targetPoint" />
          </mxGeometry>
        </mxCell>
        <mxCell id="pj4gJBPTk-7VDhpHc7rh-186" value="" style="endArrow=none;html=1;rounded=0;exitX=0.44;exitY=0.995;exitDx=0;exitDy=0;entryX=0.933;entryY=0.415;entryDx=0;entryDy=0;exitPerimeter=0;entryPerimeter=0;" parent="1" source="pj4gJBPTk-7VDhpHc7rh-151" target="pj4gJBPTk-7VDhpHc7rh-174" edge="1">
          <mxGeometry relative="1" as="geometry">
            <mxPoint x="-90" y="680" as="sourcePoint" />
            <mxPoint x="-51" y="716" as="targetPoint" />
          </mxGeometry>
        </mxCell>
        <mxCell id="pj4gJBPTk-7VDhpHc7rh-188" value="" style="endArrow=none;html=1;rounded=0;exitX=0.5;exitY=1;exitDx=0;exitDy=0;entryX=1;entryY=0.5;entryDx=0;entryDy=0;" parent="1" source="pj4gJBPTk-7VDhpHc7rh-151" target="pj4gJBPTk-7VDhpHc7rh-174" edge="1">
          <mxGeometry relative="1" as="geometry">
            <mxPoint x="-60" y="690" as="sourcePoint" />
            <mxPoint x="-40" y="710" as="targetPoint" />
          </mxGeometry>
        </mxCell>
        <mxCell id="pj4gJBPTk-7VDhpHc7rh-189" value="M" style="text;strokeColor=none;fillColor=none;spacingLeft=4;spacingRight=4;overflow=hidden;rotatable=0;points=[[0,0.5],[1,0.5]];portConstraint=eastwest;fontSize=12;whiteSpace=wrap;html=1;" parent="1" vertex="1">
          <mxGeometry x="-118" y="620" width="40" height="30" as="geometry" />
        </mxCell>
        <mxCell id="pj4gJBPTk-7VDhpHc7rh-190" value="1" style="text;strokeColor=none;fillColor=none;spacingLeft=4;spacingRight=4;overflow=hidden;rotatable=0;points=[[0,0.5],[1,0.5]];portConstraint=eastwest;fontSize=12;whiteSpace=wrap;html=1;" parent="1" vertex="1">
          <mxGeometry x="-53" y="650" width="40" height="30" as="geometry" />
        </mxCell>
        <mxCell id="pj4gJBPTk-7VDhpHc7rh-191" value="ROLE" style="whiteSpace=wrap;html=1;align=center;" parent="1" vertex="1">
          <mxGeometry x="670" y="580" width="100" height="40" as="geometry" />
        </mxCell>
        <mxCell id="pj4gJBPTk-7VDhpHc7rh-193" value="&lt;u&gt;id&lt;/u&gt;" style="ellipse;whiteSpace=wrap;html=1;align=center;" parent="1" vertex="1">
          <mxGeometry x="730" y="640" width="100" height="40" as="geometry" />
        </mxCell>
        <mxCell id="pj4gJBPTk-7VDhpHc7rh-194" value="name" style="ellipse;whiteSpace=wrap;html=1;align=center;" parent="1" vertex="1">
          <mxGeometry x="610" y="640" width="100" height="40" as="geometry" />
        </mxCell>
        <mxCell id="pj4gJBPTk-7VDhpHc7rh-195" value="" style="endArrow=none;html=1;rounded=0;exitX=0;exitY=1;exitDx=0;exitDy=0;entryX=0.5;entryY=0;entryDx=0;entryDy=0;" parent="1" source="pj4gJBPTk-7VDhpHc7rh-191" target="pj4gJBPTk-7VDhpHc7rh-194" edge="1">
          <mxGeometry relative="1" as="geometry">
            <mxPoint x="640" y="600" as="sourcePoint" />
            <mxPoint x="652" y="626" as="targetPoint" />
          </mxGeometry>
        </mxCell>
        <mxCell id="pj4gJBPTk-7VDhpHc7rh-196" value="" style="endArrow=none;html=1;rounded=0;exitX=0.616;exitY=1.005;exitDx=0;exitDy=0;entryX=0.264;entryY=0.03;entryDx=0;entryDy=0;exitPerimeter=0;entryPerimeter=0;" parent="1" source="pj4gJBPTk-7VDhpHc7rh-191" target="pj4gJBPTk-7VDhpHc7rh-193" edge="1">
          <mxGeometry relative="1" as="geometry">
            <mxPoint x="740" y="620" as="sourcePoint" />
            <mxPoint x="752" y="646" as="targetPoint" />
          </mxGeometry>
        </mxCell>
        <mxCell id="pj4gJBPTk-7VDhpHc7rh-197" value="has" style="shape=rhombus;perimeter=rhombusPerimeter;whiteSpace=wrap;html=1;align=center;" parent="1" vertex="1">
          <mxGeometry x="630" y="480" width="90" height="40" as="geometry" />
        </mxCell>
        <mxCell id="pj4gJBPTk-7VDhpHc7rh-198" value="" style="endArrow=none;html=1;rounded=0;exitX=0.95;exitY=0.04;exitDx=0;exitDy=0;entryX=0.863;entryY=1.024;entryDx=0;entryDy=0;entryPerimeter=0;exitPerimeter=0;" parent="1" source="pj4gJBPTk-7VDhpHc7rh-203" target="pj4gJBPTk-7VDhpHc7rh-1" edge="1">
          <mxGeometry relative="1" as="geometry">
            <mxPoint x="540" y="470" as="sourcePoint" />
            <mxPoint x="520" y="510" as="targetPoint" />
          </mxGeometry>
        </mxCell>
        <mxCell id="pj4gJBPTk-7VDhpHc7rh-199" value="" style="endArrow=none;html=1;rounded=0;exitX=1;exitY=0.5;exitDx=0;exitDy=0;entryX=0.25;entryY=0;entryDx=0;entryDy=0;" parent="1" source="pj4gJBPTk-7VDhpHc7rh-197" target="pj4gJBPTk-7VDhpHc7rh-191" edge="1">
          <mxGeometry relative="1" as="geometry">
            <mxPoint x="680" y="520" as="sourcePoint" />
            <mxPoint x="660" y="560" as="targetPoint" />
          </mxGeometry>
        </mxCell>
        <mxCell id="pj4gJBPTk-7VDhpHc7rh-200" value="" style="endArrow=none;html=1;rounded=0;exitX=0;exitY=0.5;exitDx=0;exitDy=0;entryX=0.75;entryY=1;entryDx=0;entryDy=0;" parent="1" source="pj4gJBPTk-7VDhpHc7rh-197" target="pj4gJBPTk-7VDhpHc7rh-1" edge="1">
          <mxGeometry relative="1" as="geometry">
            <mxPoint x="510" y="470" as="sourcePoint" />
            <mxPoint x="440" y="380" as="targetPoint" />
          </mxGeometry>
        </mxCell>
        <mxCell id="pj4gJBPTk-7VDhpHc7rh-202" value="1" style="text;strokeColor=none;fillColor=none;spacingLeft=4;spacingRight=4;overflow=hidden;rotatable=0;points=[[0,0.5],[1,0.5]];portConstraint=eastwest;fontSize=12;whiteSpace=wrap;html=1;" parent="1" vertex="1">
          <mxGeometry x="690" y="505" width="40" height="30" as="geometry" />
        </mxCell>
        <mxCell id="pj4gJBPTk-7VDhpHc7rh-203" value="M" style="text;strokeColor=none;fillColor=none;spacingLeft=4;spacingRight=4;overflow=hidden;rotatable=0;points=[[0,0.5],[1,0.5]];portConstraint=eastwest;fontSize=12;whiteSpace=wrap;html=1;" parent="1" vertex="1">
          <mxGeometry x="600" y="495" width="40" height="30" as="geometry" />
        </mxCell>
        <mxCell id="pj4gJBPTk-7VDhpHc7rh-204" value="EVENT" style="whiteSpace=wrap;html=1;align=center;" parent="1" vertex="1">
          <mxGeometry x="1390" y="190" width="165" height="90" as="geometry" />
        </mxCell>
        <mxCell id="pj4gJBPTk-7VDhpHc7rh-205" value="&lt;u&gt;id&lt;/u&gt;" style="ellipse;whiteSpace=wrap;html=1;align=center;" parent="1" vertex="1">
          <mxGeometry x="1350" y="108.75" width="100" height="40" as="geometry" />
        </mxCell>
        <mxCell id="pj4gJBPTk-7VDhpHc7rh-206" value="img" style="ellipse;whiteSpace=wrap;html=1;align=center;" parent="1" vertex="1">
          <mxGeometry x="1250" y="200" width="100" height="40" as="geometry" />
        </mxCell>
        <mxCell id="pj4gJBPTk-7VDhpHc7rh-208" value="theme" style="ellipse;whiteSpace=wrap;html=1;align=center;" parent="1" vertex="1">
          <mxGeometry x="1250" y="140" width="100" height="40" as="geometry" />
        </mxCell>
        <mxCell id="pj4gJBPTk-7VDhpHc7rh-209" value="description" style="ellipse;whiteSpace=wrap;html=1;align=center;" parent="1" vertex="1">
          <mxGeometry x="1550" y="305" width="100" height="40" as="geometry" />
        </mxCell>
        <mxCell id="pj4gJBPTk-7VDhpHc7rh-210" value="objective" style="ellipse;whiteSpace=wrap;html=1;align=center;" parent="1" vertex="1">
          <mxGeometry x="1600" y="220" width="100" height="40" as="geometry" />
        </mxCell>
        <mxCell id="pj4gJBPTk-7VDhpHc7rh-211" value="location" style="ellipse;whiteSpace=wrap;html=1;align=center;" parent="1" vertex="1">
          <mxGeometry x="1600" y="170" width="100" height="40" as="geometry" />
        </mxCell>
        <mxCell id="pj4gJBPTk-7VDhpHc7rh-212" value="date" style="ellipse;whiteSpace=wrap;html=1;align=center;" parent="1" vertex="1">
          <mxGeometry x="1520" y="120" width="100" height="40" as="geometry" />
        </mxCell>
        <mxCell id="pj4gJBPTk-7VDhpHc7rh-214" value="AGENDA" style="whiteSpace=wrap;html=1;align=center;" parent="1" vertex="1">
          <mxGeometry x="1567.5" y="-150" width="150" height="60" as="geometry" />
        </mxCell>
        <mxCell id="pj4gJBPTk-7VDhpHc7rh-215" value="&lt;u&gt;id&lt;/u&gt;" style="ellipse;whiteSpace=wrap;html=1;align=center;" parent="1" vertex="1">
          <mxGeometry x="1440" y="-160" width="100" height="40" as="geometry" />
        </mxCell>
        <mxCell id="pj4gJBPTk-7VDhpHc7rh-217" value="day" style="ellipse;whiteSpace=wrap;html=1;align=center;" parent="1" vertex="1">
          <mxGeometry x="1592.5" y="-220" width="100" height="40" as="geometry" />
        </mxCell>
        <mxCell id="pj4gJBPTk-7VDhpHc7rh-218" value="hour" style="ellipse;whiteSpace=wrap;html=1;align=center;" parent="1" vertex="1">
          <mxGeometry x="1730" y="-210" width="100" height="40" as="geometry" />
        </mxCell>
        <mxCell id="pj4gJBPTk-7VDhpHc7rh-220" value="title" style="ellipse;whiteSpace=wrap;html=1;align=center;" parent="1" vertex="1">
          <mxGeometry x="1750" y="-130" width="100" height="40" as="geometry" />
        </mxCell>
        <mxCell id="pj4gJBPTk-7VDhpHc7rh-224" value="EVENT_TITLE" style="whiteSpace=wrap;html=1;align=center;" parent="1" vertex="1">
          <mxGeometry x="1225" y="490" width="100" height="40" as="geometry" />
        </mxCell>
        <mxCell id="pj4gJBPTk-7VDhpHc7rh-225" value="&lt;u&gt;id&lt;/u&gt;" style="ellipse;whiteSpace=wrap;html=1;align=center;" parent="1" vertex="1">
          <mxGeometry x="1130" y="550" width="100" height="40" as="geometry" />
        </mxCell>
        <mxCell id="pj4gJBPTk-7VDhpHc7rh-226" value="title" style="ellipse;whiteSpace=wrap;html=1;align=center;" parent="1" vertex="1">
          <mxGeometry x="1320" y="550" width="100" height="40" as="geometry" />
        </mxCell>
        <mxCell id="pj4gJBPTk-7VDhpHc7rh-227" value="" style="endArrow=none;html=1;rounded=0;exitX=0;exitY=0.75;exitDx=0;exitDy=0;entryX=0.5;entryY=0;entryDx=0;entryDy=0;" parent="1" source="pj4gJBPTk-7VDhpHc7rh-224" target="pj4gJBPTk-7VDhpHc7rh-225" edge="1">
          <mxGeometry relative="1" as="geometry">
            <mxPoint x="1190" y="460" as="sourcePoint" />
            <mxPoint x="1205" y="540" as="targetPoint" />
          </mxGeometry>
        </mxCell>
        <mxCell id="pj4gJBPTk-7VDhpHc7rh-228" value="" style="endArrow=none;html=1;rounded=0;exitX=1;exitY=1;exitDx=0;exitDy=0;entryX=0.28;entryY=0.015;entryDx=0;entryDy=0;entryPerimeter=0;" parent="1" source="pj4gJBPTk-7VDhpHc7rh-224" target="pj4gJBPTk-7VDhpHc7rh-226" edge="1">
          <mxGeometry relative="1" as="geometry">
            <mxPoint x="1360" y="510" as="sourcePoint" />
            <mxPoint x="1375" y="590" as="targetPoint" />
          </mxGeometry>
        </mxCell>
        <mxCell id="pj4gJBPTk-7VDhpHc7rh-229" value="has" style="shape=rhombus;perimeter=rhombusPerimeter;whiteSpace=wrap;html=1;align=center;" parent="1" vertex="1">
          <mxGeometry x="1290" y="390" width="80" height="40" as="geometry" />
        </mxCell>
        <mxCell id="pj4gJBPTk-7VDhpHc7rh-230" value="" style="endArrow=none;html=1;rounded=0;exitX=0.5;exitY=1;exitDx=0;exitDy=0;entryX=0.75;entryY=0;entryDx=0;entryDy=0;" parent="1" source="pj4gJBPTk-7VDhpHc7rh-229" target="pj4gJBPTk-7VDhpHc7rh-224" edge="1">
          <mxGeometry relative="1" as="geometry">
            <mxPoint x="1380" y="450" as="sourcePoint" />
            <mxPoint x="1403" y="471" as="targetPoint" />
          </mxGeometry>
        </mxCell>
        <mxCell id="pj4gJBPTk-7VDhpHc7rh-231" value="" style="endArrow=none;html=1;rounded=0;exitX=0;exitY=1;exitDx=0;exitDy=0;entryX=0.5;entryY=0;entryDx=0;entryDy=0;" parent="1" source="pj4gJBPTk-7VDhpHc7rh-204" target="pj4gJBPTk-7VDhpHc7rh-229" edge="1">
          <mxGeometry relative="1" as="geometry">
            <mxPoint x="1430" y="380" as="sourcePoint" />
            <mxPoint x="1453" y="401" as="targetPoint" />
          </mxGeometry>
        </mxCell>
        <mxCell id="pj4gJBPTk-7VDhpHc7rh-232" value="" style="endArrow=none;html=1;rounded=0;exitX=0.056;exitY=0.984;exitDx=0;exitDy=0;entryX=0.605;entryY=0.095;entryDx=0;entryDy=0;entryPerimeter=0;exitPerimeter=0;" parent="1" source="pj4gJBPTk-7VDhpHc7rh-204" target="pj4gJBPTk-7VDhpHc7rh-229" edge="1">
          <mxGeometry relative="1" as="geometry">
            <mxPoint x="1410" y="390" as="sourcePoint" />
            <mxPoint x="1433" y="411" as="targetPoint" />
          </mxGeometry>
        </mxCell>
        <mxCell id="pj4gJBPTk-7VDhpHc7rh-233" value="1" style="text;strokeColor=none;fillColor=none;spacingLeft=4;spacingRight=4;overflow=hidden;rotatable=0;points=[[0,0.5],[1,0.5]];portConstraint=eastwest;fontSize=12;whiteSpace=wrap;html=1;" parent="1" vertex="1">
          <mxGeometry x="1300" y="430" width="40" height="30" as="geometry" />
        </mxCell>
        <mxCell id="pj4gJBPTk-7VDhpHc7rh-234" value="M" style="text;strokeColor=none;fillColor=none;spacingLeft=4;spacingRight=4;overflow=hidden;rotatable=0;points=[[0,0.5],[1,0.5]];portConstraint=eastwest;fontSize=12;whiteSpace=wrap;html=1;" parent="1" vertex="1">
          <mxGeometry x="1310" y="360" width="40" height="30" as="geometry" />
        </mxCell>
        <mxCell id="pj4gJBPTk-7VDhpHc7rh-235" value="has" style="shape=rhombus;perimeter=rhombusPerimeter;whiteSpace=wrap;html=1;align=center;" parent="1" vertex="1">
          <mxGeometry x="1440" y="40" width="90" height="50" as="geometry" />
        </mxCell>
        <mxCell id="pj4gJBPTk-7VDhpHc7rh-237" value="" style="endArrow=none;html=1;rounded=0;exitX=0.994;exitY=0.593;exitDx=0;exitDy=0;entryX=0;entryY=0.5;entryDx=0;entryDy=0;exitPerimeter=0;" parent="1" source="pj4gJBPTk-7VDhpHc7rh-214" target="pj4gJBPTk-7VDhpHc7rh-220" edge="1">
          <mxGeometry relative="1" as="geometry">
            <mxPoint x="1740" y="-100" as="sourcePoint" />
            <mxPoint x="1763" y="-79" as="targetPoint" />
          </mxGeometry>
        </mxCell>
        <mxCell id="pj4gJBPTk-7VDhpHc7rh-238" value="" style="endArrow=none;html=1;rounded=0;exitX=1;exitY=0;exitDx=0;exitDy=0;entryX=0;entryY=1;entryDx=0;entryDy=0;" parent="1" source="pj4gJBPTk-7VDhpHc7rh-214" target="pj4gJBPTk-7VDhpHc7rh-218" edge="1">
          <mxGeometry relative="1" as="geometry">
            <mxPoint x="1750" y="-170" as="sourcePoint" />
            <mxPoint x="1773" y="-149" as="targetPoint" />
          </mxGeometry>
        </mxCell>
        <mxCell id="pj4gJBPTk-7VDhpHc7rh-239" value="" style="endArrow=none;html=1;rounded=0;exitX=0.5;exitY=1;exitDx=0;exitDy=0;entryX=0.5;entryY=0;entryDx=0;entryDy=0;" parent="1" source="pj4gJBPTk-7VDhpHc7rh-217" target="pj4gJBPTk-7VDhpHc7rh-214" edge="1">
          <mxGeometry relative="1" as="geometry">
            <mxPoint x="1640" y="-200" as="sourcePoint" />
            <mxPoint x="1663" y="-179" as="targetPoint" />
          </mxGeometry>
        </mxCell>
        <mxCell id="pj4gJBPTk-7VDhpHc7rh-241" value="" style="endArrow=none;html=1;rounded=0;exitX=0.968;exitY=0.705;exitDx=0;exitDy=0;entryX=0;entryY=0.5;entryDx=0;entryDy=0;exitPerimeter=0;" parent="1" source="pj4gJBPTk-7VDhpHc7rh-215" target="pj4gJBPTk-7VDhpHc7rh-214" edge="1">
          <mxGeometry relative="1" as="geometry">
            <mxPoint x="1540" y="-120" as="sourcePoint" />
            <mxPoint x="1563" y="-99" as="targetPoint" />
          </mxGeometry>
        </mxCell>
        <mxCell id="pj4gJBPTk-7VDhpHc7rh-242" value="" style="endArrow=none;html=1;rounded=0;exitX=0;exitY=1;exitDx=0;exitDy=0;entryX=0.5;entryY=0;entryDx=0;entryDy=0;" parent="1" source="pj4gJBPTk-7VDhpHc7rh-214" target="pj4gJBPTk-7VDhpHc7rh-235" edge="1">
          <mxGeometry relative="1" as="geometry">
            <mxPoint x="1530" y="-30" as="sourcePoint" />
            <mxPoint x="1553" y="-9" as="targetPoint" />
          </mxGeometry>
        </mxCell>
        <mxCell id="pj4gJBPTk-7VDhpHc7rh-243" value="" style="endArrow=none;html=1;rounded=0;exitX=0.061;exitY=1;exitDx=0;exitDy=0;entryX=0.604;entryY=0.084;entryDx=0;entryDy=0;entryPerimeter=0;exitPerimeter=0;" parent="1" source="pj4gJBPTk-7VDhpHc7rh-214" target="pj4gJBPTk-7VDhpHc7rh-235" edge="1">
          <mxGeometry relative="1" as="geometry">
            <mxPoint x="1540" y="110" as="sourcePoint" />
            <mxPoint x="1563" y="131" as="targetPoint" />
          </mxGeometry>
        </mxCell>
        <mxCell id="pj4gJBPTk-7VDhpHc7rh-244" value="" style="endArrow=none;html=1;rounded=0;exitX=0.5;exitY=1;exitDx=0;exitDy=0;entryX=0.575;entryY=-0.011;entryDx=0;entryDy=0;entryPerimeter=0;" parent="1" source="pj4gJBPTk-7VDhpHc7rh-235" target="pj4gJBPTk-7VDhpHc7rh-204" edge="1">
          <mxGeometry relative="1" as="geometry">
            <mxPoint x="1460" y="130" as="sourcePoint" />
            <mxPoint x="1483" y="151" as="targetPoint" />
          </mxGeometry>
        </mxCell>
        <mxCell id="pj4gJBPTk-7VDhpHc7rh-245" value="" style="endArrow=none;html=1;rounded=0;exitX=0.409;exitY=0.948;exitDx=0;exitDy=0;entryX=0.5;entryY=0;entryDx=0;entryDy=0;exitPerimeter=0;" parent="1" source="pj4gJBPTk-7VDhpHc7rh-235" target="pj4gJBPTk-7VDhpHc7rh-204" edge="1">
          <mxGeometry relative="1" as="geometry">
            <mxPoint x="1440" y="130" as="sourcePoint" />
            <mxPoint x="1463" y="151" as="targetPoint" />
          </mxGeometry>
        </mxCell>
        <mxCell id="pj4gJBPTk-7VDhpHc7rh-246" value="1" style="text;strokeColor=none;fillColor=none;spacingLeft=4;spacingRight=4;overflow=hidden;rotatable=0;points=[[0,0.5],[1,0.5]];portConstraint=eastwest;fontSize=12;whiteSpace=wrap;html=1;" parent="1" vertex="1">
          <mxGeometry x="1490" y="90" width="40" height="30" as="geometry" />
        </mxCell>
        <mxCell id="pj4gJBPTk-7VDhpHc7rh-247" value="M" style="text;strokeColor=none;fillColor=none;spacingLeft=4;spacingRight=4;overflow=hidden;rotatable=0;points=[[0,0.5],[1,0.5]];portConstraint=eastwest;fontSize=12;whiteSpace=wrap;html=1;" parent="1" vertex="1">
          <mxGeometry x="1500" y="25" width="40" height="30" as="geometry" />
        </mxCell>
        <mxCell id="pj4gJBPTk-7VDhpHc7rh-248" value="" style="endArrow=none;html=1;rounded=0;exitX=0.728;exitY=1.006;exitDx=0;exitDy=0;entryX=0.25;entryY=0;entryDx=0;entryDy=0;exitPerimeter=0;" parent="1" source="pj4gJBPTk-7VDhpHc7rh-205" target="pj4gJBPTk-7VDhpHc7rh-204" edge="1">
          <mxGeometry relative="1" as="geometry">
            <mxPoint x="1400" y="150" as="sourcePoint" />
            <mxPoint x="1423" y="171" as="targetPoint" />
          </mxGeometry>
        </mxCell>
        <mxCell id="pj4gJBPTk-7VDhpHc7rh-249" value="" style="endArrow=none;html=1;rounded=0;exitX=1;exitY=0.5;exitDx=0;exitDy=0;entryX=0;entryY=0.5;entryDx=0;entryDy=0;" parent="1" source="pj4gJBPTk-7VDhpHc7rh-206" target="pj4gJBPTk-7VDhpHc7rh-204" edge="1">
          <mxGeometry relative="1" as="geometry">
            <mxPoint x="1360" y="210" as="sourcePoint" />
            <mxPoint x="1383" y="231" as="targetPoint" />
          </mxGeometry>
        </mxCell>
        <mxCell id="pj4gJBPTk-7VDhpHc7rh-250" value="" style="endArrow=none;html=1;rounded=0;exitX=0.316;exitY=0.925;exitDx=0;exitDy=0;entryX=0.851;entryY=0.007;entryDx=0;entryDy=0;entryPerimeter=0;exitPerimeter=0;" parent="1" source="pj4gJBPTk-7VDhpHc7rh-212" target="pj4gJBPTk-7VDhpHc7rh-204" edge="1">
          <mxGeometry relative="1" as="geometry">
            <mxPoint x="1570" y="170" as="sourcePoint" />
            <mxPoint x="1593" y="191" as="targetPoint" />
          </mxGeometry>
        </mxCell>
        <mxCell id="pj4gJBPTk-7VDhpHc7rh-251" value="" style="endArrow=none;html=1;rounded=0;exitX=0.996;exitY=0.104;exitDx=0;exitDy=0;entryX=0;entryY=0.5;entryDx=0;entryDy=0;exitPerimeter=0;" parent="1" source="pj4gJBPTk-7VDhpHc7rh-204" target="pj4gJBPTk-7VDhpHc7rh-211" edge="1">
          <mxGeometry relative="1" as="geometry">
            <mxPoint x="1580" y="220" as="sourcePoint" />
            <mxPoint x="1603" y="241" as="targetPoint" />
          </mxGeometry>
        </mxCell>
        <mxCell id="pj4gJBPTk-7VDhpHc7rh-252" value="" style="endArrow=none;html=1;rounded=0;exitX=1.001;exitY=0.62;exitDx=0;exitDy=0;entryX=0;entryY=0.5;entryDx=0;entryDy=0;exitPerimeter=0;" parent="1" source="pj4gJBPTk-7VDhpHc7rh-204" target="pj4gJBPTk-7VDhpHc7rh-210" edge="1">
          <mxGeometry relative="1" as="geometry">
            <mxPoint x="1580" y="230" as="sourcePoint" />
            <mxPoint x="1603" y="251" as="targetPoint" />
          </mxGeometry>
        </mxCell>
        <mxCell id="pj4gJBPTk-7VDhpHc7rh-253" value="" style="endArrow=none;html=1;rounded=0;exitX=1.001;exitY=0.913;exitDx=0;exitDy=0;entryX=0.284;entryY=0.02;entryDx=0;entryDy=0;entryPerimeter=0;exitPerimeter=0;" parent="1" source="pj4gJBPTk-7VDhpHc7rh-204" target="pj4gJBPTk-7VDhpHc7rh-209" edge="1">
          <mxGeometry relative="1" as="geometry">
            <mxPoint x="1570" y="280" as="sourcePoint" />
            <mxPoint x="1593" y="301" as="targetPoint" />
          </mxGeometry>
        </mxCell>
        <mxCell id="pj4gJBPTk-7VDhpHc7rh-254" value="" style="endArrow=none;html=1;rounded=0;exitX=0.005;exitY=0.149;exitDx=0;exitDy=0;entryX=0.936;entryY=0.785;entryDx=0;entryDy=0;exitPerimeter=0;entryPerimeter=0;" parent="1" source="pj4gJBPTk-7VDhpHc7rh-204" target="pj4gJBPTk-7VDhpHc7rh-208" edge="1">
          <mxGeometry relative="1" as="geometry">
            <mxPoint x="1490" y="290" as="sourcePoint" />
            <mxPoint x="1513" y="311" as="targetPoint" />
          </mxGeometry>
        </mxCell>
        <mxCell id="pj4gJBPTk-7VDhpHc7rh-255" value="SPEAKERS" style="whiteSpace=wrap;html=1;align=center;" parent="1" vertex="1">
          <mxGeometry x="2070" y="275" width="165" height="90" as="geometry" />
        </mxCell>
        <mxCell id="pj4gJBPTk-7VDhpHc7rh-256" value="&lt;u&gt;id&lt;/u&gt;" style="ellipse;whiteSpace=wrap;html=1;align=center;" parent="1" vertex="1">
          <mxGeometry x="2020" y="190" width="100" height="40" as="geometry" />
        </mxCell>
        <mxCell id="pj4gJBPTk-7VDhpHc7rh-257" value="name" style="ellipse;whiteSpace=wrap;html=1;align=center;" parent="1" vertex="1">
          <mxGeometry x="2135" y="190" width="100" height="40" as="geometry" />
        </mxCell>
        <mxCell id="pj4gJBPTk-7VDhpHc7rh-258" value="profesion" style="ellipse;whiteSpace=wrap;html=1;align=center;" parent="1" vertex="1">
          <mxGeometry x="2270" y="250" width="100" height="40" as="geometry" />
        </mxCell>
        <mxCell id="pj4gJBPTk-7VDhpHc7rh-259" value="img" style="ellipse;whiteSpace=wrap;html=1;align=center;" parent="1" vertex="1">
          <mxGeometry x="2280" y="300" width="100" height="40" as="geometry" />
        </mxCell>
        <mxCell id="pj4gJBPTk-7VDhpHc7rh-260" value="linkedin" style="ellipse;whiteSpace=wrap;html=1;align=center;" parent="1" vertex="1">
          <mxGeometry x="2280" y="355" width="100" height="40" as="geometry" />
        </mxCell>
        <mxCell id="pj4gJBPTk-7VDhpHc7rh-261" value="invitation" style="ellipse;whiteSpace=wrap;html=1;align=center;" parent="1" vertex="1">
          <mxGeometry x="1750" y="340" width="100" height="40" as="geometry" />
        </mxCell>
        <mxCell id="pj4gJBPTk-7VDhpHc7rh-262" value="type" style="ellipse;whiteSpace=wrap;html=1;align=center;" parent="1" vertex="1">
          <mxGeometry x="1860" y="350" width="100" height="40" as="geometry" />
        </mxCell>
        <mxCell id="pj4gJBPTk-7VDhpHc7rh-263" value="has" style="shape=rhombus;perimeter=rhombusPerimeter;whiteSpace=wrap;html=1;align=center;" parent="1" vertex="1">
          <mxGeometry x="1820" y="270" width="90" height="50" as="geometry" />
        </mxCell>
        <mxCell id="pj4gJBPTk-7VDhpHc7rh-264" value="" style="endArrow=none;html=1;rounded=0;exitX=0.5;exitY=1;exitDx=0;exitDy=0;entryX=0.102;entryY=-0.013;entryDx=0;entryDy=0;entryPerimeter=0;" parent="1" source="pj4gJBPTk-7VDhpHc7rh-256" target="pj4gJBPTk-7VDhpHc7rh-255" edge="1">
          <mxGeometry relative="1" as="geometry">
            <mxPoint x="2060" y="220" as="sourcePoint" />
            <mxPoint x="2083" y="254" as="targetPoint" />
          </mxGeometry>
        </mxCell>
        <mxCell id="pj4gJBPTk-7VDhpHc7rh-265" value="" style="endArrow=none;html=1;rounded=0;exitX=0.228;exitY=0.965;exitDx=0;exitDy=0;entryX=0.5;entryY=0;entryDx=0;entryDy=0;exitPerimeter=0;" parent="1" source="pj4gJBPTk-7VDhpHc7rh-257" target="pj4gJBPTk-7VDhpHc7rh-255" edge="1">
          <mxGeometry relative="1" as="geometry">
            <mxPoint x="2220" y="250" as="sourcePoint" />
            <mxPoint x="2243" y="284" as="targetPoint" />
          </mxGeometry>
        </mxCell>
        <mxCell id="pj4gJBPTk-7VDhpHc7rh-266" value="" style="endArrow=none;html=1;rounded=0;exitX=1.013;exitY=0.147;exitDx=0;exitDy=0;entryX=0;entryY=1;entryDx=0;entryDy=0;exitPerimeter=0;" parent="1" source="pj4gJBPTk-7VDhpHc7rh-255" target="pj4gJBPTk-7VDhpHc7rh-258" edge="1">
          <mxGeometry relative="1" as="geometry">
            <mxPoint x="2250" y="300" as="sourcePoint" />
            <mxPoint x="2273" y="334" as="targetPoint" />
          </mxGeometry>
        </mxCell>
        <mxCell id="pj4gJBPTk-7VDhpHc7rh-267" value="" style="endArrow=none;html=1;rounded=0;exitX=0.994;exitY=0.413;exitDx=0;exitDy=0;entryX=0.04;entryY=0.325;entryDx=0;entryDy=0;entryPerimeter=0;exitPerimeter=0;" parent="1" source="pj4gJBPTk-7VDhpHc7rh-255" target="pj4gJBPTk-7VDhpHc7rh-259" edge="1">
          <mxGeometry relative="1" as="geometry">
            <mxPoint x="2270" y="330" as="sourcePoint" />
            <mxPoint x="2293" y="364" as="targetPoint" />
          </mxGeometry>
        </mxCell>
        <mxCell id="pj4gJBPTk-7VDhpHc7rh-269" value="" style="endArrow=none;html=1;rounded=0;exitX=1;exitY=0.75;exitDx=0;exitDy=0;entryX=0.052;entryY=0.25;entryDx=0;entryDy=0;entryPerimeter=0;" parent="1" source="pj4gJBPTk-7VDhpHc7rh-255" target="pj4gJBPTk-7VDhpHc7rh-260" edge="1">
          <mxGeometry relative="1" as="geometry">
            <mxPoint x="2240" y="390" as="sourcePoint" />
            <mxPoint x="2263" y="424" as="targetPoint" />
          </mxGeometry>
        </mxCell>
        <mxCell id="pj4gJBPTk-7VDhpHc7rh-270" value="" style="endArrow=none;html=1;rounded=0;exitX=0;exitY=1;exitDx=0;exitDy=0;entryX=0.5;entryY=0;entryDx=0;entryDy=0;" parent="1" source="pj4gJBPTk-7VDhpHc7rh-263" target="pj4gJBPTk-7VDhpHc7rh-261" edge="1">
          <mxGeometry relative="1" as="geometry">
            <mxPoint x="2150" y="380" as="sourcePoint" />
            <mxPoint x="2173" y="414" as="targetPoint" />
          </mxGeometry>
        </mxCell>
        <mxCell id="pj4gJBPTk-7VDhpHc7rh-271" value="" style="endArrow=none;html=1;rounded=0;exitX=0.676;exitY=0.828;exitDx=0;exitDy=0;entryX=0.408;entryY=-0.045;entryDx=0;entryDy=0;entryPerimeter=0;exitPerimeter=0;" parent="1" source="pj4gJBPTk-7VDhpHc7rh-263" target="pj4gJBPTk-7VDhpHc7rh-262" edge="1">
          <mxGeometry relative="1" as="geometry">
            <mxPoint x="2030" y="380" as="sourcePoint" />
            <mxPoint x="2053" y="414" as="targetPoint" />
          </mxGeometry>
        </mxCell>
        <mxCell id="pj4gJBPTk-7VDhpHc7rh-272" value="" style="endArrow=none;html=1;rounded=0;exitX=1;exitY=0.5;exitDx=0;exitDy=0;entryX=0;entryY=0.5;entryDx=0;entryDy=0;" parent="1" source="pj4gJBPTk-7VDhpHc7rh-263" target="pj4gJBPTk-7VDhpHc7rh-255" edge="1">
          <mxGeometry relative="1" as="geometry">
            <mxPoint x="1990" y="290" as="sourcePoint" />
            <mxPoint x="2013" y="324" as="targetPoint" />
          </mxGeometry>
        </mxCell>
        <mxCell id="pj4gJBPTk-7VDhpHc7rh-273" value="" style="endArrow=none;html=1;rounded=0;exitX=0.924;exitY=0.588;exitDx=0;exitDy=0;entryX=-0.012;entryY=0.591;entryDx=0;entryDy=0;entryPerimeter=0;exitPerimeter=0;" parent="1" source="pj4gJBPTk-7VDhpHc7rh-263" target="pj4gJBPTk-7VDhpHc7rh-255" edge="1">
          <mxGeometry relative="1" as="geometry">
            <mxPoint x="1910" y="310" as="sourcePoint" />
            <mxPoint x="1933" y="344" as="targetPoint" />
          </mxGeometry>
        </mxCell>
        <mxCell id="pj4gJBPTk-7VDhpHc7rh-274" value="" style="endArrow=none;html=1;rounded=0;exitX=1.011;exitY=0.878;exitDx=0;exitDy=0;entryX=0;entryY=0.5;entryDx=0;entryDy=0;exitPerimeter=0;" parent="1" source="pj4gJBPTk-7VDhpHc7rh-204" target="pj4gJBPTk-7VDhpHc7rh-263" edge="1">
          <mxGeometry relative="1" as="geometry">
            <mxPoint x="1760" y="280" as="sourcePoint" />
            <mxPoint x="1783" y="314" as="targetPoint" />
          </mxGeometry>
        </mxCell>
        <mxCell id="pj4gJBPTk-7VDhpHc7rh-275" value="" style="endArrow=none;html=1;rounded=0;exitX=0.992;exitY=0.904;exitDx=0;exitDy=0;entryX=0.098;entryY=0.604;entryDx=0;entryDy=0;entryPerimeter=0;exitPerimeter=0;" parent="1" source="pj4gJBPTk-7VDhpHc7rh-204" target="pj4gJBPTk-7VDhpHc7rh-263" edge="1">
          <mxGeometry relative="1" as="geometry">
            <mxPoint x="1730" y="330" as="sourcePoint" />
            <mxPoint x="1753" y="364" as="targetPoint" />
          </mxGeometry>
        </mxCell>
        <mxCell id="pj4gJBPTk-7VDhpHc7rh-276" value="M" style="text;strokeColor=none;fillColor=none;spacingLeft=4;spacingRight=4;overflow=hidden;rotatable=0;points=[[0,0.5],[1,0.5]];portConstraint=eastwest;fontSize=12;whiteSpace=wrap;html=1;" parent="1" vertex="1">
          <mxGeometry x="1790" y="265" width="40" height="30" as="geometry" />
        </mxCell>
        <mxCell id="pj4gJBPTk-7VDhpHc7rh-277" value="N" style="text;strokeColor=none;fillColor=none;spacingLeft=4;spacingRight=4;overflow=hidden;rotatable=0;points=[[0,0.5],[1,0.5]];portConstraint=eastwest;fontSize=12;whiteSpace=wrap;html=1;" parent="1" vertex="1">
          <mxGeometry x="1920" y="270" width="40" height="30" as="geometry" />
        </mxCell>
        <mxCell id="pj4gJBPTk-7VDhpHc7rh-278" value="TICKET" style="whiteSpace=wrap;html=1;align=center;" parent="1" vertex="1">
          <mxGeometry x="950" y="55" width="100" height="40" as="geometry" />
        </mxCell>
        <mxCell id="pj4gJBPTk-7VDhpHc7rh-279" value="&lt;u&gt;id&lt;/u&gt;" style="ellipse;whiteSpace=wrap;html=1;align=center;" parent="1" vertex="1">
          <mxGeometry x="890" y="-30" width="100" height="40" as="geometry" />
        </mxCell>
        <mxCell id="pj4gJBPTk-7VDhpHc7rh-280" value="ticket_type" style="ellipse;whiteSpace=wrap;html=1;align=center;" parent="1" vertex="1">
          <mxGeometry x="1020" y="-20" width="100" height="40" as="geometry" />
        </mxCell>
        <mxCell id="pj4gJBPTk-7VDhpHc7rh-281" value="price" style="ellipse;whiteSpace=wrap;html=1;align=center;" parent="1" vertex="1">
          <mxGeometry x="1080" y="30" width="110" height="45" as="geometry" />
        </mxCell>
        <mxCell id="pj4gJBPTk-7VDhpHc7rh-282" value="seats" style="ellipse;whiteSpace=wrap;html=1;align=center;" parent="1" vertex="1">
          <mxGeometry x="1060" y="100" width="120" height="45" as="geometry" />
        </mxCell>
        <mxCell id="pj4gJBPTk-7VDhpHc7rh-283" value="pauses" style="ellipse;whiteSpace=wrap;html=1;align=center;" parent="1" vertex="1">
          <mxGeometry x="940" y="135" width="110" height="45" as="geometry" />
        </mxCell>
        <mxCell id="pj4gJBPTk-7VDhpHc7rh-284" value="wifi" style="ellipse;whiteSpace=wrap;html=1;align=center;" parent="1" vertex="1">
          <mxGeometry x="820" y="95" width="100" height="45" as="geometry" />
        </mxCell>
        <mxCell id="pj4gJBPTk-7VDhpHc7rh-286" value="" style="endArrow=none;html=1;rounded=0;exitX=0.716;exitY=1.015;exitDx=0;exitDy=0;entryX=0.34;entryY=0.05;entryDx=0;entryDy=0;entryPerimeter=0;exitPerimeter=0;" parent="1" source="pj4gJBPTk-7VDhpHc7rh-279" target="pj4gJBPTk-7VDhpHc7rh-278" edge="1">
          <mxGeometry relative="1" as="geometry">
            <mxPoint x="970" y="20" as="sourcePoint" />
            <mxPoint x="1008" y="47" as="targetPoint" />
          </mxGeometry>
        </mxCell>
        <mxCell id="pj4gJBPTk-7VDhpHc7rh-287" value="" style="endArrow=none;html=1;rounded=0;exitX=0;exitY=1;exitDx=0;exitDy=0;entryX=0.75;entryY=0;entryDx=0;entryDy=0;" parent="1" source="pj4gJBPTk-7VDhpHc7rh-280" target="pj4gJBPTk-7VDhpHc7rh-278" edge="1">
          <mxGeometry relative="1" as="geometry">
            <mxPoint x="1030" y="30" as="sourcePoint" />
            <mxPoint x="1068" y="57" as="targetPoint" />
          </mxGeometry>
        </mxCell>
        <mxCell id="pj4gJBPTk-7VDhpHc7rh-288" value="" style="endArrow=none;html=1;rounded=0;exitX=1;exitY=0.5;exitDx=0;exitDy=0;entryX=0;entryY=1;entryDx=0;entryDy=0;" parent="1" source="pj4gJBPTk-7VDhpHc7rh-278" target="pj4gJBPTk-7VDhpHc7rh-281" edge="1">
          <mxGeometry relative="1" as="geometry">
            <mxPoint x="1070" y="70" as="sourcePoint" />
            <mxPoint x="1108" y="97" as="targetPoint" />
          </mxGeometry>
        </mxCell>
        <mxCell id="pj4gJBPTk-7VDhpHc7rh-289" value="" style="endArrow=none;html=1;rounded=0;exitX=1;exitY=1;exitDx=0;exitDy=0;entryX=0.073;entryY=0.236;entryDx=0;entryDy=0;entryPerimeter=0;" parent="1" source="pj4gJBPTk-7VDhpHc7rh-278" target="pj4gJBPTk-7VDhpHc7rh-282" edge="1">
          <mxGeometry relative="1" as="geometry">
            <mxPoint x="1070" y="90" as="sourcePoint" />
            <mxPoint x="1108" y="117" as="targetPoint" />
          </mxGeometry>
        </mxCell>
        <mxCell id="pj4gJBPTk-7VDhpHc7rh-290" value="" style="endArrow=none;html=1;rounded=0;exitX=0.5;exitY=1;exitDx=0;exitDy=0;entryX=0.5;entryY=0;entryDx=0;entryDy=0;" parent="1" source="pj4gJBPTk-7VDhpHc7rh-278" target="pj4gJBPTk-7VDhpHc7rh-283" edge="1">
          <mxGeometry relative="1" as="geometry">
            <mxPoint x="1020" y="110" as="sourcePoint" />
            <mxPoint x="1058" y="137" as="targetPoint" />
          </mxGeometry>
        </mxCell>
        <mxCell id="pj4gJBPTk-7VDhpHc7rh-291" value="" style="endArrow=none;html=1;rounded=0;entryX=0.978;entryY=0.342;entryDx=0;entryDy=0;entryPerimeter=0;exitX=0;exitY=1;exitDx=0;exitDy=0;" parent="1" source="pj4gJBPTk-7VDhpHc7rh-278" target="pj4gJBPTk-7VDhpHc7rh-284" edge="1">
          <mxGeometry relative="1" as="geometry">
            <mxPoint x="950" y="100" as="sourcePoint" />
            <mxPoint x="998" y="137" as="targetPoint" />
          </mxGeometry>
        </mxCell>
        <mxCell id="pj4gJBPTk-7VDhpHc7rh-293" value="has" style="shape=rhombus;perimeter=rhombusPerimeter;whiteSpace=wrap;html=1;align=center;" parent="1" vertex="1">
          <mxGeometry x="1080" y="240" width="90" height="50" as="geometry" />
        </mxCell>
        <mxCell id="pj4gJBPTk-7VDhpHc7rh-294" value="" style="endArrow=none;html=1;rounded=0;exitX=1;exitY=0.5;exitDx=0;exitDy=0;entryX=0;entryY=0.75;entryDx=0;entryDy=0;" parent="1" source="pj4gJBPTk-7VDhpHc7rh-293" target="pj4gJBPTk-7VDhpHc7rh-204" edge="1">
          <mxGeometry relative="1" as="geometry">
            <mxPoint x="1120" y="190" as="sourcePoint" />
            <mxPoint x="1158" y="217" as="targetPoint" />
          </mxGeometry>
        </mxCell>
        <mxCell id="pj4gJBPTk-7VDhpHc7rh-295" value="" style="endArrow=none;html=1;rounded=0;exitX=0.889;exitY=0.628;exitDx=0;exitDy=0;entryX=0.012;entryY=0.869;entryDx=0;entryDy=0;entryPerimeter=0;exitPerimeter=0;" parent="1" source="pj4gJBPTk-7VDhpHc7rh-293" target="pj4gJBPTk-7VDhpHc7rh-204" edge="1">
          <mxGeometry relative="1" as="geometry">
            <mxPoint x="1260" y="300" as="sourcePoint" />
            <mxPoint x="1298" y="327" as="targetPoint" />
          </mxGeometry>
        </mxCell>
        <mxCell id="pj4gJBPTk-7VDhpHc7rh-296" value="" style="endArrow=none;html=1;rounded=0;exitX=0.868;exitY=1.07;exitDx=0;exitDy=0;entryX=0.5;entryY=0;entryDx=0;entryDy=0;exitPerimeter=0;" parent="1" source="pj4gJBPTk-7VDhpHc7rh-278" target="pj4gJBPTk-7VDhpHc7rh-293" edge="1">
          <mxGeometry relative="1" as="geometry">
            <mxPoint x="1080" y="180" as="sourcePoint" />
            <mxPoint x="1118" y="207" as="targetPoint" />
          </mxGeometry>
        </mxCell>
        <mxCell id="pj4gJBPTk-7VDhpHc7rh-297" value="" style="endArrow=none;html=1;rounded=0;exitX=0.75;exitY=1;exitDx=0;exitDy=0;entryX=0.409;entryY=0.084;entryDx=0;entryDy=0;entryPerimeter=0;" parent="1" source="pj4gJBPTk-7VDhpHc7rh-278" target="pj4gJBPTk-7VDhpHc7rh-293" edge="1">
          <mxGeometry relative="1" as="geometry">
            <mxPoint x="1090" y="210" as="sourcePoint" />
            <mxPoint x="1128" y="237" as="targetPoint" />
          </mxGeometry>
        </mxCell>
        <mxCell id="pj4gJBPTk-7VDhpHc7rh-298" value="1" style="text;strokeColor=none;fillColor=none;spacingLeft=4;spacingRight=4;overflow=hidden;rotatable=0;points=[[0,0.5],[1,0.5]];portConstraint=eastwest;fontSize=12;whiteSpace=wrap;html=1;" parent="1" vertex="1">
          <mxGeometry x="1170" y="240" width="40" height="30" as="geometry" />
        </mxCell>
        <mxCell id="pj4gJBPTk-7VDhpHc7rh-299" value="M" style="text;strokeColor=none;fillColor=none;spacingLeft=4;spacingRight=4;overflow=hidden;rotatable=0;points=[[0,0.5],[1,0.5]];portConstraint=eastwest;fontSize=12;whiteSpace=wrap;html=1;" parent="1" vertex="1">
          <mxGeometry x="1120" y="210" width="40" height="30" as="geometry" />
        </mxCell>
        <mxCell id="pj4gJBPTk-7VDhpHc7rh-300" value="bought" style="shape=rhombus;perimeter=rhombusPerimeter;whiteSpace=wrap;html=1;align=center;" parent="1" vertex="1">
          <mxGeometry x="770" y="280" width="90" height="50" as="geometry" />
        </mxCell>
        <mxCell id="pj4gJBPTk-7VDhpHc7rh-301" value="" style="endArrow=none;html=1;rounded=0;exitX=0.999;exitY=0.589;exitDx=0;exitDy=0;entryX=0;entryY=0.5;entryDx=0;entryDy=0;exitPerimeter=0;" parent="1" source="pj4gJBPTk-7VDhpHc7rh-1" target="pj4gJBPTk-7VDhpHc7rh-300" edge="1">
          <mxGeometry relative="1" as="geometry">
            <mxPoint x="660" y="300" as="sourcePoint" />
            <mxPoint x="752" y="449" as="targetPoint" />
          </mxGeometry>
        </mxCell>
        <mxCell id="pj4gJBPTk-7VDhpHc7rh-302" value="" style="endArrow=none;html=1;rounded=0;exitX=0.084;exitY=0.99;exitDx=0;exitDy=0;entryX=1;entryY=0.5;entryDx=0;entryDy=0;exitPerimeter=0;" parent="1" source="pj4gJBPTk-7VDhpHc7rh-278" target="pj4gJBPTk-7VDhpHc7rh-300" edge="1">
          <mxGeometry relative="1" as="geometry">
            <mxPoint x="860" y="200" as="sourcePoint" />
            <mxPoint x="952" y="349" as="targetPoint" />
          </mxGeometry>
        </mxCell>
        <mxCell id="pj4gJBPTk-7VDhpHc7rh-303" value="M" style="text;strokeColor=none;fillColor=none;spacingLeft=4;spacingRight=4;overflow=hidden;rotatable=0;points=[[0,0.5],[1,0.5]];portConstraint=eastwest;fontSize=12;whiteSpace=wrap;html=1;" parent="1" vertex="1">
          <mxGeometry x="740" y="280" width="40" height="30" as="geometry" />
        </mxCell>
        <mxCell id="pj4gJBPTk-7VDhpHc7rh-304" value="N" style="text;strokeColor=none;fillColor=none;spacingLeft=4;spacingRight=4;overflow=hidden;rotatable=0;points=[[0,0.5],[1,0.5]];portConstraint=eastwest;fontSize=12;whiteSpace=wrap;html=1;" parent="1" vertex="1">
          <mxGeometry x="840" y="270" width="40" height="30" as="geometry" />
        </mxCell>
        <mxCell id="pj4gJBPTk-7VDhpHc7rh-306" value="EMPLOYEE" style="whiteSpace=wrap;html=1;align=center;" parent="1" vertex="1">
          <mxGeometry x="-217" y="-205" width="162" height="80" as="geometry" />
        </mxCell>
        <mxCell id="pj4gJBPTk-7VDhpHc7rh-307" value="&lt;u&gt;id&lt;/u&gt;" style="ellipse;whiteSpace=wrap;html=1;align=center;" parent="1" vertex="1">
          <mxGeometry x="-298" y="-270" width="100" height="40" as="geometry" />
        </mxCell>
        <mxCell id="pj4gJBPTk-7VDhpHc7rh-308" value="name" style="ellipse;whiteSpace=wrap;html=1;align=center;" parent="1" vertex="1">
          <mxGeometry x="-182" y="-270" width="100" height="40" as="geometry" />
        </mxCell>
        <mxCell id="pj4gJBPTk-7VDhpHc7rh-309" value="surname" style="ellipse;whiteSpace=wrap;html=1;align=center;" parent="1" vertex="1">
          <mxGeometry x="-71" y="-260" width="100" height="40" as="geometry" />
        </mxCell>
        <mxCell id="pj4gJBPTk-7VDhpHc7rh-310" value="img" style="ellipse;whiteSpace=wrap;html=1;align=center;" parent="1" vertex="1">
          <mxGeometry x="-13" y="-210" width="100" height="40" as="geometry" />
        </mxCell>
        <mxCell id="pj4gJBPTk-7VDhpHc7rh-311" value="profession" style="ellipse;whiteSpace=wrap;html=1;align=center;" parent="1" vertex="1">
          <mxGeometry x="-9" y="-145" width="100" height="40" as="geometry" />
        </mxCell>
        <mxCell id="pj4gJBPTk-7VDhpHc7rh-312" value="facebook" style="ellipse;whiteSpace=wrap;html=1;align=center;" parent="1" vertex="1">
          <mxGeometry x="-178" y="-75" width="100" height="40" as="geometry" />
        </mxCell>
        <mxCell id="pj4gJBPTk-7VDhpHc7rh-313" value="twitter" style="ellipse;whiteSpace=wrap;html=1;align=center;" parent="1" vertex="1">
          <mxGeometry x="-298" y="-80" width="100" height="40" as="geometry" />
        </mxCell>
        <mxCell id="pj4gJBPTk-7VDhpHc7rh-316" value="instagram" style="ellipse;whiteSpace=wrap;html=1;align=center;" parent="1" vertex="1">
          <mxGeometry x="-360" y="-150" width="100" height="40" as="geometry" />
        </mxCell>
        <mxCell id="pj4gJBPTk-7VDhpHc7rh-317" value="linkedin" style="ellipse;whiteSpace=wrap;html=1;align=center;" parent="1" vertex="1">
          <mxGeometry x="-350" y="-210" width="100" height="40" as="geometry" />
        </mxCell>
        <mxCell id="pj4gJBPTk-7VDhpHc7rh-318" value="bio" style="ellipse;whiteSpace=wrap;html=1;align=center;" parent="1" vertex="1">
          <mxGeometry x="-70" y="-90" width="100" height="40" as="geometry" />
        </mxCell>
        <mxCell id="pj4gJBPTk-7VDhpHc7rh-319" value="" style="endArrow=none;html=1;rounded=0;exitX=0.772;exitY=0.915;exitDx=0;exitDy=0;entryX=0.111;entryY=0.011;entryDx=0;entryDy=0;entryPerimeter=0;exitPerimeter=0;" parent="1" source="pj4gJBPTk-7VDhpHc7rh-307" target="pj4gJBPTk-7VDhpHc7rh-306" edge="1">
          <mxGeometry relative="1" as="geometry">
            <mxPoint x="-70" y="-190" as="sourcePoint" />
            <mxPoint x="7" y="-132" as="targetPoint" />
          </mxGeometry>
        </mxCell>
        <mxCell id="pj4gJBPTk-7VDhpHc7rh-320" value="" style="endArrow=none;html=1;rounded=0;exitX=0.43;exitY=1.015;exitDx=0;exitDy=0;entryX=0.422;entryY=0.011;entryDx=0;entryDy=0;entryPerimeter=0;exitPerimeter=0;" parent="1" source="pj4gJBPTk-7VDhpHc7rh-308" target="pj4gJBPTk-7VDhpHc7rh-306" edge="1">
          <mxGeometry relative="1" as="geometry">
            <mxPoint x="-20" y="-190" as="sourcePoint" />
            <mxPoint x="57" y="-132" as="targetPoint" />
          </mxGeometry>
        </mxCell>
        <mxCell id="pj4gJBPTk-7VDhpHc7rh-321" value="" style="endArrow=none;html=1;rounded=0;exitX=0;exitY=1;exitDx=0;exitDy=0;entryX=0.877;entryY=-0.009;entryDx=0;entryDy=0;entryPerimeter=0;" parent="1" source="pj4gJBPTk-7VDhpHc7rh-309" target="pj4gJBPTk-7VDhpHc7rh-306" edge="1">
          <mxGeometry relative="1" as="geometry">
            <mxPoint x="40" y="-200" as="sourcePoint" />
            <mxPoint x="117" y="-142" as="targetPoint" />
          </mxGeometry>
        </mxCell>
        <mxCell id="pj4gJBPTk-7VDhpHc7rh-322" value="" style="endArrow=none;html=1;rounded=0;exitX=1;exitY=0.25;exitDx=0;exitDy=0;entryX=0;entryY=0.5;entryDx=0;entryDy=0;" parent="1" source="pj4gJBPTk-7VDhpHc7rh-306" target="pj4gJBPTk-7VDhpHc7rh-310" edge="1">
          <mxGeometry relative="1" as="geometry">
            <mxPoint x="100" y="-190" as="sourcePoint" />
            <mxPoint x="177" y="-132" as="targetPoint" />
          </mxGeometry>
        </mxCell>
        <mxCell id="pj4gJBPTk-7VDhpHc7rh-323" value="" style="endArrow=none;html=1;rounded=0;exitX=1.01;exitY=0.881;exitDx=0;exitDy=0;entryX=0;entryY=0.5;entryDx=0;entryDy=0;exitPerimeter=0;" parent="1" source="pj4gJBPTk-7VDhpHc7rh-306" target="pj4gJBPTk-7VDhpHc7rh-311" edge="1">
          <mxGeometry relative="1" as="geometry">
            <mxPoint x="110" y="-120" as="sourcePoint" />
            <mxPoint x="187" y="-62" as="targetPoint" />
          </mxGeometry>
        </mxCell>
        <mxCell id="pj4gJBPTk-7VDhpHc7rh-324" value="" style="endArrow=none;html=1;rounded=0;exitX=0.896;exitY=0.981;exitDx=0;exitDy=0;entryX=0;entryY=0;entryDx=0;entryDy=0;exitPerimeter=0;" parent="1" source="pj4gJBPTk-7VDhpHc7rh-306" target="pj4gJBPTk-7VDhpHc7rh-318" edge="1">
          <mxGeometry relative="1" as="geometry">
            <mxPoint x="80" y="-50" as="sourcePoint" />
            <mxPoint x="157" y="8" as="targetPoint" />
          </mxGeometry>
        </mxCell>
        <mxCell id="pj4gJBPTk-7VDhpHc7rh-325" value="" style="endArrow=none;html=1;rounded=0;exitX=0.5;exitY=1;exitDx=0;exitDy=0;entryX=0.5;entryY=0;entryDx=0;entryDy=0;" parent="1" source="pj4gJBPTk-7VDhpHc7rh-306" target="pj4gJBPTk-7VDhpHc7rh-312" edge="1">
          <mxGeometry relative="1" as="geometry">
            <mxPoint x="20" y="-60" as="sourcePoint" />
            <mxPoint x="97" y="-2" as="targetPoint" />
          </mxGeometry>
        </mxCell>
        <mxCell id="pj4gJBPTk-7VDhpHc7rh-326" value="" style="endArrow=none;html=1;rounded=0;exitX=0.081;exitY=0.971;exitDx=0;exitDy=0;entryX=0.72;entryY=0.045;entryDx=0;entryDy=0;entryPerimeter=0;exitPerimeter=0;" parent="1" source="pj4gJBPTk-7VDhpHc7rh-306" target="pj4gJBPTk-7VDhpHc7rh-313" edge="1">
          <mxGeometry relative="1" as="geometry">
            <mxPoint x="-40" y="-70" as="sourcePoint" />
            <mxPoint x="37" y="-12" as="targetPoint" />
          </mxGeometry>
        </mxCell>
        <mxCell id="pj4gJBPTk-7VDhpHc7rh-327" value="" style="endArrow=none;html=1;rounded=0;exitX=1;exitY=0.5;exitDx=0;exitDy=0;entryX=0.007;entryY=0.861;entryDx=0;entryDy=0;entryPerimeter=0;" parent="1" source="pj4gJBPTk-7VDhpHc7rh-316" target="pj4gJBPTk-7VDhpHc7rh-306" edge="1">
          <mxGeometry relative="1" as="geometry">
            <mxPoint x="-100" y="-110" as="sourcePoint" />
            <mxPoint x="-23" y="-52" as="targetPoint" />
          </mxGeometry>
        </mxCell>
        <mxCell id="pj4gJBPTk-7VDhpHc7rh-328" value="" style="endArrow=none;html=1;rounded=0;exitX=1;exitY=0.5;exitDx=0;exitDy=0;entryX=-0.012;entryY=0.341;entryDx=0;entryDy=0;entryPerimeter=0;" parent="1" source="pj4gJBPTk-7VDhpHc7rh-317" target="pj4gJBPTk-7VDhpHc7rh-306" edge="1">
          <mxGeometry relative="1" as="geometry">
            <mxPoint x="-100" y="-150" as="sourcePoint" />
            <mxPoint x="-23" y="-92" as="targetPoint" />
          </mxGeometry>
        </mxCell>
        <mxCell id="pj4gJBPTk-7VDhpHc7rh-329" value="GENERAL_INFO" style="whiteSpace=wrap;html=1;align=center;" parent="1" vertex="1">
          <mxGeometry x="1060" y="-480" width="165" height="90" as="geometry" />
        </mxCell>
        <mxCell id="pj4gJBPTk-7VDhpHc7rh-330" value="&lt;u&gt;id&lt;/u&gt;" style="ellipse;whiteSpace=wrap;html=1;align=center;" parent="1" vertex="1">
          <mxGeometry x="1020" y="-560" width="100" height="40" as="geometry" />
        </mxCell>
        <mxCell id="pj4gJBPTk-7VDhpHc7rh-331" value="hero_image" style="ellipse;whiteSpace=wrap;html=1;align=center;" parent="1" vertex="1">
          <mxGeometry x="1140" y="-560" width="100" height="40" as="geometry" />
        </mxCell>
        <mxCell id="pj4gJBPTk-7VDhpHc7rh-332" value="hero_title" style="ellipse;whiteSpace=wrap;html=1;align=center;" parent="1" vertex="1">
          <mxGeometry x="1270" y="-470" width="100" height="40" as="geometry" />
        </mxCell>
        <mxCell id="pj4gJBPTk-7VDhpHc7rh-333" value="email" style="ellipse;whiteSpace=wrap;html=1;align=center;" parent="1" vertex="1">
          <mxGeometry x="1270" y="-410" width="100" height="40" as="geometry" />
        </mxCell>
        <mxCell id="pj4gJBPTk-7VDhpHc7rh-334" value="adress" style="ellipse;whiteSpace=wrap;html=1;align=center;" parent="1" vertex="1">
          <mxGeometry x="1200" y="-350" width="100" height="40" as="geometry" />
        </mxCell>
        <mxCell id="pj4gJBPTk-7VDhpHc7rh-335" value="linkedin" style="ellipse;whiteSpace=wrap;html=1;align=center;" parent="1" vertex="1">
          <mxGeometry x="1060" y="-340" width="100" height="40" as="geometry" />
        </mxCell>
        <mxCell id="pj4gJBPTk-7VDhpHc7rh-336" value="instagram" style="ellipse;whiteSpace=wrap;html=1;align=center;" parent="1" vertex="1">
          <mxGeometry x="945" y="-370" width="100" height="40" as="geometry" />
        </mxCell>
        <mxCell id="pj4gJBPTk-7VDhpHc7rh-337" value="facebook" style="ellipse;whiteSpace=wrap;html=1;align=center;" parent="1" vertex="1">
          <mxGeometry x="930" y="-440" width="100" height="40" as="geometry" />
        </mxCell>
        <mxCell id="pj4gJBPTk-7VDhpHc7rh-338" value="youtube" style="ellipse;whiteSpace=wrap;html=1;align=center;" parent="1" vertex="1">
          <mxGeometry x="940" y="-510" width="100" height="40" as="geometry" />
        </mxCell>
        <mxCell id="pj4gJBPTk-7VDhpHc7rh-339" value="logo" style="ellipse;whiteSpace=wrap;html=1;align=center;" parent="1" vertex="1">
          <mxGeometry x="1250" y="-530" width="100" height="40" as="geometry" />
        </mxCell>
        <mxCell id="pj4gJBPTk-7VDhpHc7rh-341" value="" style="endArrow=none;html=1;rounded=0;exitX=0.768;exitY=0.965;exitDx=0;exitDy=0;entryX=0.301;entryY=-0.024;entryDx=0;entryDy=0;exitPerimeter=0;entryPerimeter=0;" parent="1" source="pj4gJBPTk-7VDhpHc7rh-330" target="pj4gJBPTk-7VDhpHc7rh-329" edge="1">
          <mxGeometry relative="1" as="geometry">
            <mxPoint x="1130" y="-500" as="sourcePoint" />
            <mxPoint x="1123" y="-460" as="targetPoint" />
          </mxGeometry>
        </mxCell>
        <mxCell id="pj4gJBPTk-7VDhpHc7rh-342" value="" style="endArrow=none;html=1;rounded=0;exitX=0.304;exitY=0.965;exitDx=0;exitDy=0;entryX=0.63;entryY=0.002;entryDx=0;entryDy=0;exitPerimeter=0;entryPerimeter=0;" parent="1" source="pj4gJBPTk-7VDhpHc7rh-331" target="pj4gJBPTk-7VDhpHc7rh-329" edge="1">
          <mxGeometry relative="1" as="geometry">
            <mxPoint x="1150" y="-510" as="sourcePoint" />
            <mxPoint x="1143" y="-470" as="targetPoint" />
          </mxGeometry>
        </mxCell>
        <mxCell id="pj4gJBPTk-7VDhpHc7rh-343" value="" style="endArrow=none;html=1;rounded=0;exitX=0.052;exitY=0.735;exitDx=0;exitDy=0;entryX=0.994;entryY=0.082;entryDx=0;entryDy=0;exitPerimeter=0;entryPerimeter=0;" parent="1" source="pj4gJBPTk-7VDhpHc7rh-339" target="pj4gJBPTk-7VDhpHc7rh-329" edge="1">
          <mxGeometry relative="1" as="geometry">
            <mxPoint x="1220" y="-510" as="sourcePoint" />
            <mxPoint x="1213" y="-470" as="targetPoint" />
          </mxGeometry>
        </mxCell>
        <mxCell id="pj4gJBPTk-7VDhpHc7rh-344" value="" style="endArrow=none;html=1;rounded=0;exitX=0;exitY=0.5;exitDx=0;exitDy=0;entryX=1;entryY=0.5;entryDx=0;entryDy=0;" parent="1" source="pj4gJBPTk-7VDhpHc7rh-332" target="pj4gJBPTk-7VDhpHc7rh-329" edge="1">
          <mxGeometry relative="1" as="geometry">
            <mxPoint x="1250" y="-460" as="sourcePoint" />
            <mxPoint x="1243" y="-420" as="targetPoint" />
          </mxGeometry>
        </mxCell>
        <mxCell id="pj4gJBPTk-7VDhpHc7rh-345" value="" style="endArrow=none;html=1;rounded=0;exitX=0;exitY=0.5;exitDx=0;exitDy=0;entryX=0.994;entryY=0.847;entryDx=0;entryDy=0;entryPerimeter=0;" parent="1" source="pj4gJBPTk-7VDhpHc7rh-333" target="pj4gJBPTk-7VDhpHc7rh-329" edge="1">
          <mxGeometry relative="1" as="geometry">
            <mxPoint x="1250" y="-410" as="sourcePoint" />
            <mxPoint x="1230" y="-380" as="targetPoint" />
          </mxGeometry>
        </mxCell>
        <mxCell id="pj4gJBPTk-7VDhpHc7rh-346" value="" style="endArrow=none;html=1;rounded=0;exitX=0.96;exitY=1.016;exitDx=0;exitDy=0;entryX=0.368;entryY=-0.025;entryDx=0;entryDy=0;exitPerimeter=0;entryPerimeter=0;" parent="1" source="pj4gJBPTk-7VDhpHc7rh-329" target="pj4gJBPTk-7VDhpHc7rh-334" edge="1">
          <mxGeometry relative="1" as="geometry">
            <mxPoint x="1240" y="-380" as="sourcePoint" />
            <mxPoint x="1233" y="-340" as="targetPoint" />
          </mxGeometry>
        </mxCell>
        <mxCell id="pj4gJBPTk-7VDhpHc7rh-347" value="" style="endArrow=none;html=1;rounded=0;exitX=0.461;exitY=0.998;exitDx=0;exitDy=0;entryX=0.584;entryY=0.005;entryDx=0;entryDy=0;exitPerimeter=0;entryPerimeter=0;" parent="1" source="pj4gJBPTk-7VDhpHc7rh-329" target="pj4gJBPTk-7VDhpHc7rh-335" edge="1">
          <mxGeometry relative="1" as="geometry">
            <mxPoint x="1150" y="-370" as="sourcePoint" />
            <mxPoint x="1143" y="-330" as="targetPoint" />
          </mxGeometry>
        </mxCell>
        <mxCell id="pj4gJBPTk-7VDhpHc7rh-348" value="" style="endArrow=none;html=1;rounded=0;exitX=0;exitY=1;exitDx=0;exitDy=0;entryX=0.966;entryY=0.295;entryDx=0;entryDy=0;entryPerimeter=0;" parent="1" source="pj4gJBPTk-7VDhpHc7rh-329" target="pj4gJBPTk-7VDhpHc7rh-336" edge="1">
          <mxGeometry relative="1" as="geometry">
            <mxPoint x="1060" y="-380" as="sourcePoint" />
            <mxPoint x="1053" y="-340" as="targetPoint" />
          </mxGeometry>
        </mxCell>
        <mxCell id="pj4gJBPTk-7VDhpHc7rh-349" value="" style="endArrow=none;html=1;rounded=0;exitX=-0.01;exitY=0.616;exitDx=0;exitDy=0;entryX=1;entryY=0.5;entryDx=0;entryDy=0;exitPerimeter=0;" parent="1" source="pj4gJBPTk-7VDhpHc7rh-329" target="pj4gJBPTk-7VDhpHc7rh-337" edge="1">
          <mxGeometry relative="1" as="geometry">
            <mxPoint x="1040" y="-430" as="sourcePoint" />
            <mxPoint x="1033" y="-390" as="targetPoint" />
          </mxGeometry>
        </mxCell>
        <mxCell id="pj4gJBPTk-7VDhpHc7rh-350" value="" style="endArrow=none;html=1;rounded=0;exitX=0.005;exitY=0.109;exitDx=0;exitDy=0;entryX=0.96;entryY=0.755;entryDx=0;entryDy=0;exitPerimeter=0;entryPerimeter=0;" parent="1" source="pj4gJBPTk-7VDhpHc7rh-329" target="pj4gJBPTk-7VDhpHc7rh-338" edge="1">
          <mxGeometry relative="1" as="geometry">
            <mxPoint x="1050" y="-470" as="sourcePoint" />
            <mxPoint x="1043" y="-430" as="targetPoint" />
          </mxGeometry>
        </mxCell>
        <mxCell id="pj4gJBPTk-7VDhpHc7rh-351" value="CONNECTIONS" style="rhombus;whiteSpace=wrap;html=1;" parent="1" vertex="1">
          <mxGeometry x="550" y="22.5" width="140" height="72.5" as="geometry" />
        </mxCell>
        <mxCell id="pj4gJBPTk-7VDhpHc7rh-352" value="satus" style="ellipse;whiteSpace=wrap;html=1;align=center;" parent="1" vertex="1">
          <mxGeometry x="630" y="-25" width="100" height="45" as="geometry" />
        </mxCell>
        <mxCell id="pj4gJBPTk-7VDhpHc7rh-353" value="" style="endArrow=none;html=1;rounded=0;entryX=1;entryY=0;entryDx=0;entryDy=0;exitX=0;exitY=1;exitDx=0;exitDy=0;" parent="1" source="pj4gJBPTk-7VDhpHc7rh-352" target="pj4gJBPTk-7VDhpHc7rh-351" edge="1">
          <mxGeometry relative="1" as="geometry">
            <mxPoint x="640" y="110" as="sourcePoint" />
            <mxPoint x="608" y="125" as="targetPoint" />
          </mxGeometry>
        </mxCell>
        <mxCell id="pj4gJBPTk-7VDhpHc7rh-354" value="" style="endArrow=none;html=1;rounded=0;entryX=0.75;entryY=0;entryDx=0;entryDy=0;exitX=0;exitY=0.5;exitDx=0;exitDy=0;" parent="1" source="pj4gJBPTk-7VDhpHc7rh-351" target="pj4gJBPTk-7VDhpHc7rh-1" edge="1">
          <mxGeometry relative="1" as="geometry">
            <mxPoint x="460" y="170" as="sourcePoint" />
            <mxPoint x="428" y="185" as="targetPoint" />
          </mxGeometry>
        </mxCell>
        <mxCell id="pj4gJBPTk-7VDhpHc7rh-355" value="" style="endArrow=none;html=1;rounded=0;exitX=0.5;exitY=1;exitDx=0;exitDy=0;entryX=0.936;entryY=-0.024;entryDx=0;entryDy=0;entryPerimeter=0;" parent="1" source="pj4gJBPTk-7VDhpHc7rh-351" target="pj4gJBPTk-7VDhpHc7rh-1" edge="1">
          <mxGeometry relative="1" as="geometry">
            <mxPoint x="490" y="170" as="sourcePoint" />
            <mxPoint x="460" y="270" as="targetPoint" />
          </mxGeometry>
        </mxCell>
        <mxCell id="pj4gJBPTk-7VDhpHc7rh-356" value="" style="endArrow=none;html=1;rounded=0;entryX=0.892;entryY=-0.042;entryDx=0;entryDy=0;entryPerimeter=0;exitX=0.443;exitY=0.981;exitDx=0;exitDy=0;exitPerimeter=0;" parent="1" source="pj4gJBPTk-7VDhpHc7rh-351" target="pj4gJBPTk-7VDhpHc7rh-1" edge="1">
          <mxGeometry relative="1" as="geometry">
            <mxPoint x="490" y="200" as="sourcePoint" />
            <mxPoint x="458" y="215" as="targetPoint" />
          </mxGeometry>
        </mxCell>
        <mxCell id="pj4gJBPTk-7VDhpHc7rh-357" value="M" style="text;strokeColor=none;fillColor=none;spacingLeft=4;spacingRight=4;overflow=hidden;rotatable=0;points=[[0,0.5],[1,0.5]];portConstraint=eastwest;fontSize=12;whiteSpace=wrap;html=1;" parent="1" vertex="1">
          <mxGeometry x="540" y="60" width="40" height="30" as="geometry" />
        </mxCell>
        <mxCell id="pj4gJBPTk-7VDhpHc7rh-358" value="N" style="text;strokeColor=none;fillColor=none;spacingLeft=4;spacingRight=4;overflow=hidden;rotatable=0;points=[[0,0.5],[1,0.5]];portConstraint=eastwest;fontSize=12;whiteSpace=wrap;html=1;" parent="1" vertex="1">
          <mxGeometry x="580" y="90" width="40" height="30" as="geometry" />
        </mxCell>
        <mxCell id="pj4gJBPTk-7VDhpHc7rh-359" value="FEEDBACK" style="whiteSpace=wrap;html=1;align=center;" parent="1" vertex="1">
          <mxGeometry x="110" y="-10" width="100" height="40" as="geometry" />
        </mxCell>
        <mxCell id="pj4gJBPTk-7VDhpHc7rh-360" value="&lt;u&gt;id&lt;/u&gt;" style="ellipse;whiteSpace=wrap;html=1;align=center;" parent="1" vertex="1">
          <mxGeometry x="69" y="-70" width="100" height="40" as="geometry" />
        </mxCell>
        <mxCell id="pj4gJBPTk-7VDhpHc7rh-361" value="content" style="ellipse;whiteSpace=wrap;html=1;align=center;" parent="1" vertex="1">
          <mxGeometry x="190" y="-70" width="100" height="40" as="geometry" />
        </mxCell>
        <mxCell id="pj4gJBPTk-7VDhpHc7rh-362" value="" style="endArrow=none;html=1;rounded=0;exitX=0.5;exitY=1;exitDx=0;exitDy=0;entryX=0.25;entryY=0;entryDx=0;entryDy=0;" parent="1" source="pj4gJBPTk-7VDhpHc7rh-360" target="pj4gJBPTk-7VDhpHc7rh-359" edge="1">
          <mxGeometry relative="1" as="geometry">
            <mxPoint x="90" y="-10" as="sourcePoint" />
            <mxPoint x="107" y="33" as="targetPoint" />
          </mxGeometry>
        </mxCell>
        <mxCell id="pj4gJBPTk-7VDhpHc7rh-363" value="" style="endArrow=none;html=1;rounded=0;exitX=0.308;exitY=0.985;exitDx=0;exitDy=0;entryX=0.884;entryY=-0.015;entryDx=0;entryDy=0;exitPerimeter=0;entryPerimeter=0;" parent="1" source="pj4gJBPTk-7VDhpHc7rh-361" target="pj4gJBPTk-7VDhpHc7rh-359" edge="1">
          <mxGeometry relative="1" as="geometry">
            <mxPoint x="250" as="sourcePoint" />
            <mxPoint x="267" y="43" as="targetPoint" />
          </mxGeometry>
        </mxCell>
        <mxCell id="pj4gJBPTk-7VDhpHc7rh-364" value="wrote" style="rhombus;whiteSpace=wrap;html=1;" parent="1" vertex="1">
          <mxGeometry x="160" y="73.75" width="80" height="35" as="geometry" />
        </mxCell>
        <mxCell id="pj4gJBPTk-7VDhpHc7rh-365" value="" style="endArrow=none;html=1;rounded=0;exitX=0.75;exitY=1;exitDx=0;exitDy=0;entryX=0.5;entryY=0;entryDx=0;entryDy=0;" parent="1" source="pj4gJBPTk-7VDhpHc7rh-359" target="pj4gJBPTk-7VDhpHc7rh-364" edge="1">
          <mxGeometry relative="1" as="geometry">
            <mxPoint x="270" y="60" as="sourcePoint" />
            <mxPoint x="247" y="80" as="targetPoint" />
          </mxGeometry>
        </mxCell>
        <mxCell id="pj4gJBPTk-7VDhpHc7rh-366" value="" style="endArrow=none;html=1;rounded=0;exitX=0.644;exitY=1.045;exitDx=0;exitDy=0;entryX=0.395;entryY=0.086;entryDx=0;entryDy=0;exitPerimeter=0;entryPerimeter=0;" parent="1" source="pj4gJBPTk-7VDhpHc7rh-359" target="pj4gJBPTk-7VDhpHc7rh-364" edge="1">
          <mxGeometry relative="1" as="geometry">
            <mxPoint x="160" y="60" as="sourcePoint" />
            <mxPoint x="137" y="80" as="targetPoint" />
          </mxGeometry>
        </mxCell>
        <mxCell id="pj4gJBPTk-7VDhpHc7rh-367" value="" style="endArrow=none;html=1;rounded=0;exitX=0.25;exitY=0;exitDx=0;exitDy=0;entryX=1;entryY=0.5;entryDx=0;entryDy=0;" parent="1" source="pj4gJBPTk-7VDhpHc7rh-1" target="pj4gJBPTk-7VDhpHc7rh-364" edge="1">
          <mxGeometry relative="1" as="geometry">
            <mxPoint x="320" y="110" as="sourcePoint" />
            <mxPoint x="297" y="130" as="targetPoint" />
          </mxGeometry>
        </mxCell>
        <mxCell id="pj4gJBPTk-7VDhpHc7rh-368" value="1" style="text;strokeColor=none;fillColor=none;spacingLeft=4;spacingRight=4;overflow=hidden;rotatable=0;points=[[0,0.5],[1,0.5]];portConstraint=eastwest;fontSize=12;whiteSpace=wrap;html=1;" parent="1" vertex="1">
          <mxGeometry x="240" y="76.25" width="40" height="30" as="geometry" />
        </mxCell>
        <mxCell id="pj4gJBPTk-7VDhpHc7rh-369" value="M" style="text;strokeColor=none;fillColor=none;spacingLeft=4;spacingRight=4;overflow=hidden;rotatable=0;points=[[0,0.5],[1,0.5]];portConstraint=eastwest;fontSize=12;whiteSpace=wrap;html=1;" parent="1" vertex="1">
          <mxGeometry x="200" y="45" width="40" height="30" as="geometry" />
        </mxCell>
        <mxCell id="9b7GAON-B1lv5mK-kKCH-1" value="" style="endArrow=none;html=1;rounded=0;exitX=0.335;exitY=0.02;exitDx=0;exitDy=0;entryX=0.588;entryY=0.945;entryDx=0;entryDy=0;entryPerimeter=0;exitPerimeter=0;" edge="1" parent="1" source="pj4gJBPTk-7VDhpHc7rh-1" target="pj4gJBPTk-7VDhpHc7rh-32">
          <mxGeometry relative="1" as="geometry">
            <mxPoint x="370" y="70" as="sourcePoint" />
            <mxPoint x="296" y="-62" as="targetPoint" />
          </mxGeometry>
        </mxCell>
        <mxCell id="9b7GAON-B1lv5mK-kKCH-2" value="quantity" style="ellipse;whiteSpace=wrap;html=1;align=center;" vertex="1" parent="1">
          <mxGeometry x="820" y="20" width="100" height="40" as="geometry" />
        </mxCell>
        <mxCell id="9b7GAON-B1lv5mK-kKCH-3" value="" style="endArrow=none;html=1;rounded=0;exitX=0.976;exitY=0.685;exitDx=0;exitDy=0;entryX=0;entryY=0.25;entryDx=0;entryDy=0;exitPerimeter=0;" edge="1" parent="1" source="9b7GAON-B1lv5mK-kKCH-2" target="pj4gJBPTk-7VDhpHc7rh-278">
          <mxGeometry relative="1" as="geometry">
            <mxPoint x="940" y="40" as="sourcePoint" />
            <mxPoint x="962" y="86" as="targetPoint" />
          </mxGeometry>
        </mxCell>
        <mxCell id="9b7GAON-B1lv5mK-kKCH-4" value="blog_sections" style="whiteSpace=wrap;html=1;align=center;" vertex="1" parent="1">
          <mxGeometry x="-850" y="540" width="150" height="60" as="geometry" />
        </mxCell>
        <mxCell id="9b7GAON-B1lv5mK-kKCH-5" value="&lt;u&gt;id&lt;/u&gt;" style="ellipse;whiteSpace=wrap;html=1;align=center;" vertex="1" parent="1">
          <mxGeometry x="-860" y="465" width="100" height="40" as="geometry" />
        </mxCell>
        <mxCell id="9b7GAON-B1lv5mK-kKCH-6" value="section_title" style="ellipse;whiteSpace=wrap;html=1;align=center;" vertex="1" parent="1">
          <mxGeometry x="-990" y="585" width="100" height="40" as="geometry" />
        </mxCell>
        <mxCell id="9b7GAON-B1lv5mK-kKCH-7" value="section_content" style="ellipse;whiteSpace=wrap;html=1;align=center;" vertex="1" parent="1">
          <mxGeometry x="-920" y="650" width="100" height="40" as="geometry" />
        </mxCell>
        <mxCell id="9b7GAON-B1lv5mK-kKCH-8" value="order" style="ellipse;whiteSpace=wrap;html=1;align=center;" vertex="1" parent="1">
          <mxGeometry x="-970" y="505" width="100" height="40" as="geometry" />
        </mxCell>
        <mxCell id="9b7GAON-B1lv5mK-kKCH-9" value="has" style="shape=rhombus;perimeter=rhombusPerimeter;whiteSpace=wrap;html=1;align=center;" vertex="1" parent="1">
          <mxGeometry x="-640" y="490" width="90" height="40" as="geometry" />
        </mxCell>
        <mxCell id="9b7GAON-B1lv5mK-kKCH-10" value="" style="endArrow=none;html=1;rounded=0;exitX=0.572;exitY=0.98;exitDx=0;exitDy=0;entryX=0.405;entryY=-0.05;entryDx=0;entryDy=0;entryPerimeter=0;exitPerimeter=0;" edge="1" parent="1" source="9b7GAON-B1lv5mK-kKCH-5" target="9b7GAON-B1lv5mK-kKCH-4">
          <mxGeometry relative="1" as="geometry">
            <mxPoint x="-780" y="520" as="sourcePoint" />
            <mxPoint x="-777" y="562" as="targetPoint" />
          </mxGeometry>
        </mxCell>
        <mxCell id="9b7GAON-B1lv5mK-kKCH-11" value="" style="endArrow=none;html=1;rounded=0;exitX=0.928;exitY=0.82;exitDx=0;exitDy=0;entryX=0;entryY=0.25;entryDx=0;entryDy=0;exitPerimeter=0;" edge="1" parent="1" source="9b7GAON-B1lv5mK-kKCH-8" target="9b7GAON-B1lv5mK-kKCH-4">
          <mxGeometry relative="1" as="geometry">
            <mxPoint x="-880" y="560" as="sourcePoint" />
            <mxPoint x="-877" y="602" as="targetPoint" />
          </mxGeometry>
        </mxCell>
        <mxCell id="9b7GAON-B1lv5mK-kKCH-12" value="" style="endArrow=none;html=1;rounded=0;exitX=0;exitY=0.75;exitDx=0;exitDy=0;entryX=1;entryY=0.5;entryDx=0;entryDy=0;" edge="1" parent="1" source="9b7GAON-B1lv5mK-kKCH-4" target="9b7GAON-B1lv5mK-kKCH-6">
          <mxGeometry relative="1" as="geometry">
            <mxPoint x="-860" y="570" as="sourcePoint" />
            <mxPoint x="-857" y="612" as="targetPoint" />
          </mxGeometry>
        </mxCell>
        <mxCell id="9b7GAON-B1lv5mK-kKCH-13" value="" style="endArrow=none;html=1;rounded=0;exitX=0.333;exitY=1;exitDx=0;exitDy=0;exitPerimeter=0;" edge="1" parent="1" source="9b7GAON-B1lv5mK-kKCH-4" target="9b7GAON-B1lv5mK-kKCH-7">
          <mxGeometry relative="1" as="geometry">
            <mxPoint x="-790" y="620" as="sourcePoint" />
            <mxPoint x="-787" y="662" as="targetPoint" />
          </mxGeometry>
        </mxCell>
        <mxCell id="9b7GAON-B1lv5mK-kKCH-14" value="" style="endArrow=none;html=1;rounded=0;exitX=1;exitY=0;exitDx=0;exitDy=0;entryX=0;entryY=0.5;entryDx=0;entryDy=0;" edge="1" parent="1" source="9b7GAON-B1lv5mK-kKCH-4" target="9b7GAON-B1lv5mK-kKCH-9">
          <mxGeometry relative="1" as="geometry">
            <mxPoint x="-590" y="570" as="sourcePoint" />
            <mxPoint x="-587" y="612" as="targetPoint" />
          </mxGeometry>
        </mxCell>
        <mxCell id="9b7GAON-B1lv5mK-kKCH-15" value="" style="endArrow=none;html=1;rounded=0;exitX=1.019;exitY=0.137;exitDx=0;exitDy=0;entryX=0.093;entryY=0.615;entryDx=0;entryDy=0;entryPerimeter=0;exitPerimeter=0;" edge="1" parent="1" source="9b7GAON-B1lv5mK-kKCH-4" target="9b7GAON-B1lv5mK-kKCH-9">
          <mxGeometry relative="1" as="geometry">
            <mxPoint x="-640" y="550" as="sourcePoint" />
            <mxPoint x="-637" y="592" as="targetPoint" />
          </mxGeometry>
        </mxCell>
        <mxCell id="9b7GAON-B1lv5mK-kKCH-16" value="" style="endArrow=none;html=1;rounded=0;exitX=0;exitY=1;exitDx=0;exitDy=0;entryX=0.5;entryY=0;entryDx=0;entryDy=0;" edge="1" parent="1" source="pj4gJBPTk-7VDhpHc7rh-103" target="9b7GAON-B1lv5mK-kKCH-9">
          <mxGeometry relative="1" as="geometry">
            <mxPoint x="-650" y="400" as="sourcePoint" />
            <mxPoint x="-647" y="442" as="targetPoint" />
          </mxGeometry>
        </mxCell>
        <mxCell id="9b7GAON-B1lv5mK-kKCH-17" value="" style="endArrow=none;html=1;rounded=0;exitX=0.056;exitY=1.013;exitDx=0;exitDy=0;entryX=0.609;entryY=0.075;entryDx=0;entryDy=0;entryPerimeter=0;exitPerimeter=0;" edge="1" parent="1" source="pj4gJBPTk-7VDhpHc7rh-103" target="9b7GAON-B1lv5mK-kKCH-9">
          <mxGeometry relative="1" as="geometry">
            <mxPoint x="-530" y="460" as="sourcePoint" />
            <mxPoint x="-527" y="502" as="targetPoint" />
          </mxGeometry>
        </mxCell>
        <mxCell id="9b7GAON-B1lv5mK-kKCH-18" value="M" style="text;strokeColor=none;fillColor=none;spacingLeft=4;spacingRight=4;overflow=hidden;rotatable=0;points=[[0,0.5],[1,0.5]];portConstraint=eastwest;fontSize=12;whiteSpace=wrap;html=1;" vertex="1" parent="1">
          <mxGeometry x="-670" y="490" width="40" height="30" as="geometry" />
        </mxCell>
        <mxCell id="9b7GAON-B1lv5mK-kKCH-19" value="1" style="text;strokeColor=none;fillColor=none;spacingLeft=4;spacingRight=4;overflow=hidden;rotatable=0;points=[[0,0.5],[1,0.5]];portConstraint=eastwest;fontSize=12;whiteSpace=wrap;html=1;" vertex="1" parent="1">
          <mxGeometry x="-600" y="450" width="40" height="30" as="geometry" />
        </mxCell>
        <mxCell id="9b7GAON-B1lv5mK-kKCH-21" value="-pending&lt;div style=&quot;&quot;&gt;-accepted&lt;/div&gt;&lt;div&gt;-declined&lt;/div&gt;" style="shape=note;size=20;whiteSpace=wrap;html=1;align=left;" vertex="1" parent="1">
          <mxGeometry x="690" y="-75" width="80" height="60" as="geometry" />
        </mxCell>
        <mxCell id="9b7GAON-B1lv5mK-kKCH-22" value="instagram" style="ellipse;whiteSpace=wrap;html=1;align=center;" vertex="1" parent="1">
          <mxGeometry x="2240" y="405" width="100" height="40" as="geometry" />
        </mxCell>
        <mxCell id="9b7GAON-B1lv5mK-kKCH-23" value="facebook" style="ellipse;whiteSpace=wrap;html=1;align=center;" vertex="1" parent="1">
          <mxGeometry x="2135" y="415" width="100" height="40" as="geometry" />
        </mxCell>
        <mxCell id="9b7GAON-B1lv5mK-kKCH-24" value="twitter" style="ellipse;whiteSpace=wrap;html=1;align=center;" vertex="1" parent="1">
          <mxGeometry x="2025" y="410" width="100" height="40" as="geometry" />
        </mxCell>
        <mxCell id="9b7GAON-B1lv5mK-kKCH-25" value="surname" style="ellipse;whiteSpace=wrap;html=1;align=center;" vertex="1" parent="1">
          <mxGeometry x="2250" y="195" width="100" height="40" as="geometry" />
        </mxCell>
        <mxCell id="9b7GAON-B1lv5mK-kKCH-26" value="" style="endArrow=none;html=1;rounded=0;exitX=0.912;exitY=0.013;exitDx=0;exitDy=0;entryX=0.056;entryY=0.79;entryDx=0;entryDy=0;exitPerimeter=0;entryPerimeter=0;" edge="1" parent="1" source="pj4gJBPTk-7VDhpHc7rh-255" target="9b7GAON-B1lv5mK-kKCH-25">
          <mxGeometry relative="1" as="geometry">
            <mxPoint x="2240" y="240" as="sourcePoint" />
            <mxPoint x="2290" y="249" as="targetPoint" />
          </mxGeometry>
        </mxCell>
        <mxCell id="9b7GAON-B1lv5mK-kKCH-27" value="" style="endArrow=none;html=1;rounded=0;entryX=0.3;entryY=0.04;entryDx=0;entryDy=0;entryPerimeter=0;exitX=0.863;exitY=1.018;exitDx=0;exitDy=0;exitPerimeter=0;" edge="1" parent="1" source="pj4gJBPTk-7VDhpHc7rh-255" target="9b7GAON-B1lv5mK-kKCH-22">
          <mxGeometry relative="1" as="geometry">
            <mxPoint x="2220" y="370" as="sourcePoint" />
            <mxPoint x="2290" y="399" as="targetPoint" />
          </mxGeometry>
        </mxCell>
        <mxCell id="9b7GAON-B1lv5mK-kKCH-28" value="" style="endArrow=none;html=1;rounded=0;exitX=0.621;exitY=0.982;exitDx=0;exitDy=0;entryX=0.5;entryY=0;entryDx=0;entryDy=0;exitPerimeter=0;" edge="1" parent="1" source="pj4gJBPTk-7VDhpHc7rh-255" target="9b7GAON-B1lv5mK-kKCH-23">
          <mxGeometry relative="1" as="geometry">
            <mxPoint x="2180" y="390" as="sourcePoint" />
            <mxPoint x="2230" y="399" as="targetPoint" />
          </mxGeometry>
        </mxCell>
        <mxCell id="9b7GAON-B1lv5mK-kKCH-29" value="" style="endArrow=none;html=1;rounded=0;exitX=0.145;exitY=0.973;exitDx=0;exitDy=0;entryX=0.658;entryY=0.035;entryDx=0;entryDy=0;exitPerimeter=0;entryPerimeter=0;" edge="1" parent="1" source="pj4gJBPTk-7VDhpHc7rh-255" target="9b7GAON-B1lv5mK-kKCH-24">
          <mxGeometry relative="1" as="geometry">
            <mxPoint x="2120" y="390" as="sourcePoint" />
            <mxPoint x="2170" y="399" as="targetPoint" />
          </mxGeometry>
        </mxCell>
        <mxCell id="9b7GAON-B1lv5mK-kKCH-30" value="-special&lt;div&gt;-ordinery&lt;/div&gt;" style="shape=note;size=20;whiteSpace=wrap;html=1;align=left;" vertex="1" parent="1">
          <mxGeometry x="1930" y="370" width="70" height="50" as="geometry" />
        </mxCell>
        <mxCell id="9b7GAON-B1lv5mK-kKCH-31" value="AGENDA_DESCRIPTION" style="whiteSpace=wrap;html=1;align=center;" vertex="1" parent="1">
          <mxGeometry x="1940" y="-12.5" width="160" height="42.5" as="geometry" />
        </mxCell>
        <mxCell id="9b7GAON-B1lv5mK-kKCH-32" value="&lt;u&gt;id&lt;/u&gt;" style="ellipse;whiteSpace=wrap;html=1;align=center;" vertex="1" parent="1">
          <mxGeometry x="1970" y="-80" width="100" height="40" as="geometry" />
        </mxCell>
        <mxCell id="9b7GAON-B1lv5mK-kKCH-33" value="description" style="ellipse;whiteSpace=wrap;html=1;align=center;" vertex="1" parent="1">
          <mxGeometry x="2100" y="-70" width="100" height="40" as="geometry" />
        </mxCell>
        <mxCell id="9b7GAON-B1lv5mK-kKCH-34" value="has" style="shape=rhombus;perimeter=rhombusPerimeter;whiteSpace=wrap;html=1;align=center;" vertex="1" parent="1">
          <mxGeometry x="1755" y="-30" width="90" height="50" as="geometry" />
        </mxCell>
        <mxCell id="9b7GAON-B1lv5mK-kKCH-35" value="" style="endArrow=none;html=1;rounded=0;exitX=0;exitY=1;exitDx=0;exitDy=0;entryX=1;entryY=0;entryDx=0;entryDy=0;" edge="1" parent="1" source="9b7GAON-B1lv5mK-kKCH-33" target="9b7GAON-B1lv5mK-kKCH-31">
          <mxGeometry relative="1" as="geometry">
            <mxPoint x="2150" y="10" as="sourcePoint" />
            <mxPoint x="2176" y="17" as="targetPoint" />
          </mxGeometry>
        </mxCell>
        <mxCell id="9b7GAON-B1lv5mK-kKCH-36" value="" style="endArrow=none;html=1;rounded=0;exitX=0.5;exitY=1;exitDx=0;exitDy=0;entryX=0.5;entryY=0;entryDx=0;entryDy=0;" edge="1" parent="1" source="9b7GAON-B1lv5mK-kKCH-32" target="9b7GAON-B1lv5mK-kKCH-31">
          <mxGeometry relative="1" as="geometry">
            <mxPoint x="2070" y="-30" as="sourcePoint" />
            <mxPoint x="2096" y="-23" as="targetPoint" />
          </mxGeometry>
        </mxCell>
        <mxCell id="9b7GAON-B1lv5mK-kKCH-37" value="" style="endArrow=none;html=1;rounded=0;exitX=0.88;exitY=1.011;exitDx=0;exitDy=0;entryX=0;entryY=0.5;entryDx=0;entryDy=0;exitPerimeter=0;" edge="1" parent="1" source="pj4gJBPTk-7VDhpHc7rh-214" target="9b7GAON-B1lv5mK-kKCH-34">
          <mxGeometry relative="1" as="geometry">
            <mxPoint x="1680" y="-20" as="sourcePoint" />
            <mxPoint x="1706" y="-13" as="targetPoint" />
          </mxGeometry>
        </mxCell>
        <mxCell id="9b7GAON-B1lv5mK-kKCH-38" value="" style="endArrow=none;html=1;rounded=0;exitX=1;exitY=0.5;exitDx=0;exitDy=0;" edge="1" parent="1" source="9b7GAON-B1lv5mK-kKCH-34">
          <mxGeometry relative="1" as="geometry">
            <mxPoint x="1860" y="40" as="sourcePoint" />
            <mxPoint x="1940" y="-5" as="targetPoint" />
          </mxGeometry>
        </mxCell>
        <mxCell id="9b7GAON-B1lv5mK-kKCH-39" value="" style="endArrow=none;html=1;rounded=0;exitX=0.922;exitY=0.62;exitDx=0;exitDy=0;entryX=0;entryY=0.25;entryDx=0;entryDy=0;exitPerimeter=0;" edge="1" parent="1" source="9b7GAON-B1lv5mK-kKCH-34" target="9b7GAON-B1lv5mK-kKCH-31">
          <mxGeometry relative="1" as="geometry">
            <mxPoint x="1870" y="30" as="sourcePoint" />
            <mxPoint x="1896" y="37" as="targetPoint" />
          </mxGeometry>
        </mxCell>
        <mxCell id="9b7GAON-B1lv5mK-kKCH-40" value="1" style="text;strokeColor=none;fillColor=none;spacingLeft=4;spacingRight=4;overflow=hidden;rotatable=0;points=[[0,0.5],[1,0.5]];portConstraint=eastwest;fontSize=12;whiteSpace=wrap;html=1;" vertex="1" parent="1">
          <mxGeometry x="1755" y="-40" width="40" height="30" as="geometry" />
        </mxCell>
        <mxCell id="9b7GAON-B1lv5mK-kKCH-41" value="M" style="text;strokeColor=none;fillColor=none;spacingLeft=4;spacingRight=4;overflow=hidden;rotatable=0;points=[[0,0.5],[1,0.5]];portConstraint=eastwest;fontSize=12;whiteSpace=wrap;html=1;" vertex="1" parent="1">
          <mxGeometry x="1845" y="-35" width="40" height="30" as="geometry" />
        </mxCell>
        <mxCell id="9b7GAON-B1lv5mK-kKCH-42" value="-HR Кафе&lt;div&gt;-HR Викенд&lt;/div&gt;&lt;div&gt;-HR Вебинар&lt;/div&gt;&lt;div&gt;-HR Конференции&lt;/div&gt;&lt;div&gt;.....&lt;/div&gt;" style="shape=note;size=20;whiteSpace=wrap;html=1;align=left;" vertex="1" parent="1">
          <mxGeometry x="1400" y="560" width="110" height="80" as="geometry" />
        </mxCell>
        <mxCell id="9b7GAON-B1lv5mK-kKCH-43" value="-guest&lt;div&gt;-admin&lt;/div&gt;" style="shape=note;size=20;whiteSpace=wrap;html=1;align=left;" vertex="1" parent="1">
          <mxGeometry x="580" y="670" width="70" height="50" as="geometry" />
        </mxCell>
        <mxCell id="9b7GAON-B1lv5mK-kKCH-44" value="-person&lt;div&gt;-company&lt;/div&gt;" style="shape=note;size=20;whiteSpace=wrap;html=1;align=left;" vertex="1" parent="1">
          <mxGeometry x="1100" y="-65" width="70" height="55" as="geometry" />
        </mxCell>
        <mxCell id="9b7GAON-B1lv5mK-kKCH-46" value="status" style="ellipse;whiteSpace=wrap;html=1;align=center;" vertex="1" parent="1">
          <mxGeometry x="1420" y="315" width="100" height="40" as="geometry" />
        </mxCell>
        <mxCell id="9b7GAON-B1lv5mK-kKCH-47" value="" style="endArrow=none;html=1;rounded=0;exitX=0.5;exitY=0;exitDx=0;exitDy=0;entryX=0.451;entryY=1.029;entryDx=0;entryDy=0;entryPerimeter=0;" edge="1" parent="1" source="9b7GAON-B1lv5mK-kKCH-46" target="pj4gJBPTk-7VDhpHc7rh-204">
          <mxGeometry relative="1" as="geometry">
            <mxPoint x="1470" y="310" as="sourcePoint" />
            <mxPoint x="1423" y="278" as="targetPoint" />
          </mxGeometry>
        </mxCell>
        <mxCell id="9b7GAON-B1lv5mK-kKCH-48" value="-active&lt;div&gt;-completed&lt;/div&gt;" style="shape=note;size=20;whiteSpace=wrap;html=1;align=left;" vertex="1" parent="1">
          <mxGeometry x="1481.25" y="347.5" width="77.5" height="45" as="geometry" />
        </mxCell>
        <mxCell id="9b7GAON-B1lv5mK-kKCH-49" value="-нови содржини&lt;div&gt;-нови настани&lt;/div&gt;&lt;div&gt;-приближување за датум на настан&lt;/div&gt;" style="shape=note;size=20;whiteSpace=wrap;html=1;align=left;" vertex="1" parent="1">
          <mxGeometry x="128" y="122.5" width="112" height="70" as="geometry" />
        </mxCell>
        <mxCell id="9b7GAON-B1lv5mK-kKCH-50" value="-платформа&lt;div&gt;-е-маил&lt;/div&gt;&lt;div&gt;-социјални медиуми&lt;/div&gt;" style="shape=note;size=20;whiteSpace=wrap;html=1;align=left;" vertex="1" parent="1">
          <mxGeometry x="285" y="80" width="90" height="60" as="geometry" />
        </mxCell>
      </root>
    </mxGraphModel>
  </diagram>
</mxfile>
